<svg width="1440" height="175" viewBox="0 0 1440 175" fill="none" xmlns="http://www.w3.org/2000/svg">
<path d="M-23.7471 133.11C237.586 65.1103 901.053 -30.0897 1464.25 133.11" stroke="black" stroke-width="86"/>
<path d="M-23.7471 133.111C237.586 65.1105 901.053 -30.0894 1464.25 133.111" stroke="#FEAD24" stroke-width="80"/>
<path d="M-2.70099 125.442C-1.58472 126.441 -0.526595 127.536 0.356979 128.758C1.77463 130.795 2.52316 133.288 1.50594 135.646C0.663176 137.713 -1.17916 139.247 -3.0606 140.295C-3.60369 140.596 -4.12744 140.81 -4.65119 141.024C-5.24281 141.296 -5.77618 141.636 -6.37753 141.869C-7.59957 142.423 -8.87024 142.783 -10.1798 142.987C-12.9251 143.386 -15.5448 142.806 -17.8934 141.333C-19.1843 140.46 -20.4654 139.627 -21.4653 138.434C-22.5526 137.222 -23.4558 135.758 -24 134.245C-24.2429 133.605 -24.6022 132.994 -24.6511 132.305C-24.7001 131.616 -24.4677 130.898 -24.0412 130.296C-23.3724 129.345 -22.3057 128.501 -21.0834 128.442C-20.4237 128.441 -19.9384 128.732 -19.3659 129.042C-18.803 129.313 -18.3566 129.614 -17.8809 130.031C-16.8908 131.02 -16.1334 132.067 -14.9203 132.794C-13.9013 133.404 -12.0963 134.189 -11.0589 133.228C-10.2832 132.539 -10.7206 131.123 -11.4486 130.521C-11.9727 130.076 -12.846 129.882 -13.5058 129.718C-14.2626 129.495 -15.0873 129.33 -15.8733 129.156C-16.6592 128.982 -17.5034 128.74 -18.3086 128.653C-18.9781 128.615 -19.6669 128.499 -20.3267 128.334C-23.1115 127.589 -25.4701 125.747 -26.8395 123.245C-28.2089 120.743 -28.3367 117.93 -27.1256 115.358C-25.9727 112.883 -23.8977 110.961 -21.5896 109.64C-19.3203 108.329 -16.7114 107.057 -14.0824 106.852C-12.8212 106.783 -11.3756 106.957 -10.2984 107.635C-9.91016 107.868 -9.74503 108.197 -9.46351 108.498C-9.20143 108.721 -8.78416 108.905 -8.49301 109.08C-7.94951 109.438 -7.39629 109.836 -6.88187 110.243C-5.84329 111.096 -4.93074 112.104 -4.12487 113.181C-3.63942 113.801 -3.2025 114.393 -2.79465 115.033C-2.348 115.663 -1.9984 116.235 -1.77482 116.963C-1.52217 117.642 -1.29869 118.204 -1.39524 118.971C-1.45309 119.562 -1.74374 120.213 -2.02476 120.737C-2.28633 121.338 -2.742 121.824 -3.3239 122.135C-3.92515 122.533 -4.55577 122.485 -5.28334 122.543C-6.04971 122.612 -6.72885 122.534 -7.45663 122.263C-8.09708 122.011 -8.60177 121.643 -9.16462 121.372C-10.4164 120.819 -11.3677 119.986 -12.2802 118.977C-13.1345 118.037 -14.0083 117.019 -15.4536 117.34C-16.5497 117.573 -17.6357 118.505 -17.2081 119.718C-16.9944 120.241 -16.5866 120.716 -16.1983 121.114C-15.6644 121.599 -14.9659 121.589 -14.2868 121.666C-13.0934 121.82 -11.8323 121.752 -10.6292 121.945C-9.16412 122.196 -7.82497 122.768 -6.42768 123.242C-5.04011 123.678 -3.80754 124.483 -2.70099 125.442Z" fill="black"/>
<path d="M26.0636 103.562C26.2452 104.341 26.3009 105.108 26.1527 105.882C25.5911 109.463 21.7123 111.148 18.5569 111.884C18.44 111.911 17.9155 111.951 17.8557 112.047C17.796 112.143 17.9231 112.688 17.9504 112.805C18.0295 113.321 18.0787 113.884 18.1669 114.439C18.3251 115.47 18.4833 116.501 18.6805 117.523C18.8776 118.545 19.006 119.624 19.32 120.618C19.673 121.604 20.0649 122.581 20.4179 123.566C21.1239 125.537 21.761 127.566 22.2813 129.621C22.6355 131.14 22.8157 132.618 21.4119 133.644C20.8431 134.023 20.1328 134.147 19.5458 134.448C18.7822 134.873 17.9551 135.025 17.1215 134.972C15.4543 134.868 13.995 133.894 13.0656 132.55C12.1362 131.206 11.6859 129.627 11.2447 128.087C10.6167 126.097 9.98862 124.108 9.33068 122.167C8.65458 120.148 7.9486 118.176 7.20367 116.214C7.01678 115.765 6.87793 115.346 6.73908 114.926C6.64563 114.701 6.59114 114.468 6.50678 114.282C6.38609 113.941 6.31726 113.998 5.97837 113.953C5.00975 113.851 4.03204 113.709 3.04525 113.528C1.50663 113.271 0.00959233 112.839 -1.24582 111.859C-1.91571 111.276 -2.44794 110.578 -2.501 109.646C-2.5139 109.238 -2.39178 108.881 -2.23978 108.476C-2.11765 108.119 -2.19031 107.808 -2.11622 107.421C-1.81461 105.543 -0.118735 105.066 1.50568 104.81C3.37291 104.539 5.24397 104.637 7.1112 104.366C9.04726 104.038 10.8653 103.203 12.6534 102.417C14.4506 101.669 16.2206 100.805 18.0541 100.213C19.7019 99.7056 21.4705 99.5397 23.1181 100.265C24.5255 100.84 25.7094 102.043 26.0636 103.562Z" fill="black"/>
<path d="M43.15 106.093C41.7321 108.612 41.8555 111.819 43.036 114.428C43.7919 116.023 45.146 117.735 47.0987 117.679C49.1771 117.637 50.7733 115.94 51.0779 113.95C51.3349 111.929 50.5281 110.099 49.3337 108.557C48.6524 107.682 47.893 106.824 46.9414 106.212C45.7129 105.455 44.4281 105.57 43.15 106.093ZM59.6804 106.065C59.8757 106.964 60.0709 107.863 60.2662 108.762C61.1202 112.506 61.7991 116.575 60.6443 120.305C59.459 124.082 56.3282 126.44 52.5365 127.264C51.5593 127.476 50.5651 127.61 49.5879 127.822C48.4849 128.021 47.365 128.141 46.2195 128.144C44.0629 128.203 41.8078 127.997 39.7414 127.341C36.3496 126.235 33.7636 123.563 32.3997 120.298C31.1088 117.181 30.3312 113.789 30.1348 110.434C29.9859 107.11 30.5016 103.642 32.3767 100.779C32.8051 100.113 33.4153 99.5299 33.8828 98.8553C34.3418 98.1416 35.1763 97.8376 35.8902 97.3551C36.9389 96.7181 38.0521 96.1898 39.2214 95.7312C41.8643 94.707 44.6617 94.0176 47.5083 93.9316C49.9555 93.8913 52.7476 94.3083 54.535 96.1304C54.9495 96.5316 55.342 97.0194 55.5866 97.5803C56.0079 98.3893 56.7334 99.0913 57.2329 99.8834C58.417 101.755 59.1354 103.932 59.6804 106.065Z" fill="black"/>
<path d="M88.1852 89.9719C89.3277 93.9847 89.9685 98.1404 90.7893 102.178C91.5385 105.862 92.366 109.531 92.872 113.224C92.9769 114.142 93.0738 115.02 93.2492 115.882C93.3846 116.549 93.261 117.145 92.9335 117.743C92.5667 118.348 92.1288 118.804 91.4472 119.065C91.1024 119.176 90.7728 119.162 90.4121 119.194C90.0985 119.258 89.7537 119.369 89.3929 119.401C86.1854 119.686 83.6969 116.682 81.8229 114.491C81.2874 113.865 80.744 113.2 80.1694 112.582C79.5556 111.972 78.6833 111.497 77.9286 110.997C76.4113 109.958 74.9252 108.873 73.5015 107.693C73.8184 108.649 74.1352 109.605 74.452 110.561C75.1169 112.426 75.7426 114.299 76.2115 116.203C76.3231 116.752 76.4739 117.293 76.5071 117.858C76.5084 118.266 76.5017 118.634 76.6285 119.058C76.8112 119.755 76.5939 120.493 76.2663 121.091C75.8371 121.79 75.3282 122.098 74.5681 122.375C73.6592 122.723 72.7583 123.11 71.8415 123.419C71.3791 123.554 70.9167 123.688 70.4616 123.659C70.0457 123.621 69.6923 123.488 69.3156 123.443C68.5781 123.429 67.9025 123.118 67.391 122.609C66.8715 122.062 66.5633 121.349 66.3727 120.612C66.1342 119.64 65.8174 118.684 65.6261 117.743C65.2197 115.744 65.0564 113.737 64.7675 111.714C64.1347 107.597 62.9451 103.553 62.0379 99.4923C61.8307 98.4732 61.6155 97.4148 61.4083 96.3957C61.2329 95.5333 60.9633 94.6085 60.9447 93.7143C60.8943 92.6633 61.4717 91.6887 62.3959 91.2151C63.2729 90.7102 64.3631 90.6518 65.2586 91.0412C65.4865 91.1581 65.7223 91.3143 65.919 91.4784C66.1628 91.6737 66.4691 91.7747 66.7913 91.9541C67.1686 92.204 67.4675 92.4697 67.8994 92.586C68.3312 92.7023 68.7238 92.8266 69.1404 93.0684C70.7514 93.9655 71.9325 95.358 73.3874 96.4909C74.9054 97.7334 76.3921 99.023 77.8477 100.36C78.2017 100.696 78.603 101.063 78.9571 101.4C79.3112 101.736 79.7589 101.93 80.2067 102.125C80.3874 102.211 80.7255 102.469 80.9687 102.46C81.0471 102.444 81.2351 102.365 81.3055 102.31C81.3839 102.294 81.5799 102.254 81.6504 102.199C81.7912 102.089 81.6816 102.152 81.7361 102.018C81.7746 101.806 81.6876 101.579 81.6478 101.383C81.2028 99.596 80.7657 97.8481 80.2815 96.0689C79.8053 94.3288 79.3291 92.5888 79.2528 90.8083C79.1931 89.3102 79.3208 87.529 80.6828 86.599C81.3326 86.1812 82.2654 85.9507 82.9869 85.8857C83.8652 85.7887 84.6186 85.8805 85.3965 86.2938C86.8189 87.0659 87.7489 88.4279 88.1852 89.9719Z" fill="black"/>
<path d="M118.976 102.279C122.554 102.247 124.262 105.219 124.752 108.424C124.998 109.925 124.058 111.611 122.432 111.84C121.05 112.064 119.667 112.287 118.284 112.511C115.65 113.218 113.009 113.886 110.36 114.514C108.528 114.946 106.719 115.495 104.928 115.715C104.268 115.882 103.608 116.049 102.979 116.169C102.319 116.336 101.66 116.299 101.13 115.871C101.022 115.729 100.92 115.626 100.812 115.484C100.406 115.276 100.102 114.968 99.8308 114.612C99.784 114.58 99.7297 114.509 99.6829 114.478C99.0838 113.9 98.7372 113.152 98.4223 112.357C97.7926 110.766 97.4698 109.077 96.9897 107.418C96.4647 105.523 95.9789 103.62 95.5324 101.71C94.6001 97.897 93.8492 93.9681 93.1844 90.0635C93.0418 89.317 93.0245 88.5873 93.2262 87.9379C93.1898 86.6824 93.9225 85.4021 95.5409 85.1335C100.978 84.1759 106.362 82.9433 111.647 81.4038C113.967 80.7568 116.225 79.9995 118.29 81.6411C120.362 83.322 119.957 85.6798 120.676 87.9453C121.18 89.5186 119.731 91.0987 118.324 91.4083C114.732 92.217 108.838 93.3433 105.226 93.8301C105.314 94.5056 105.402 95.181 105.53 95.8489C106.301 95.6201 109.389 94.9484 110.175 94.7982C111.204 94.6423 112.381 94.621 113.334 95.1312C115.286 96.1834 115.473 99.0798 114.282 100.733C113.25 102.152 109.381 103.217 107.801 103.682C107.908 104.028 108.054 104.367 108.2 104.705C109.167 104.439 112.413 103.737 113.38 103.471C115.165 103.007 117.101 102.271 118.976 102.279Z" fill="black"/>
<path d="M144.294 80.1641C144.422 82.4975 144.628 84.817 144.919 87.1619C144.94 87.2801 144.929 87.4446 144.996 87.5952C145.098 87.9428 144.938 87.7273 145.195 87.8038C145.413 87.8872 145.735 87.871 145.978 87.8687C146.432 87.9105 146.979 88.0171 147.438 87.8549C148.33 87.6163 149.232 86.9699 149.996 86.4695C150.722 85.976 151.447 85.4825 152.119 84.9171C152.575 84.5117 153.259 83.7818 153.173 83.0658C153.118 82.7507 152.844 82.3521 152.71 82.0509C152.522 81.6778 152.335 81.3047 152.115 80.978C151.934 80.6443 151.665 80.0418 151.387 79.8472C151.07 79.6595 150.379 79.6594 150.05 79.6362C148.155 79.4832 146.097 79.5618 144.294 80.1641ZM165.615 101.789C166.324 102.355 166.785 103.126 166.82 104.014C166.861 105.631 165.529 107.288 163.851 107.218C163.279 107.197 162.741 107.373 162.19 107.471C161.631 107.528 161.112 107.579 160.533 107.519C159.382 107.438 158.221 107.074 157.261 106.472C155.436 105.331 154.641 103.359 153.207 101.906C152.377 101.119 151.444 100.43 150.589 99.7282C150.118 99.3644 149.68 98.9542 149.321 98.5301C149.182 98.4328 148.941 97.9879 148.77 97.9369C148.638 97.879 147.963 98.201 147.806 98.2288C147.537 98.3168 147.09 98.3145 146.874 98.4743C146.619 98.6412 146.677 98.5091 146.733 98.8242C146.761 98.9818 146.795 99.1787 146.784 99.3433C146.888 99.9341 147.032 100.518 147.129 101.07C147.24 101.7 147.351 102.33 147.416 102.928C147.467 103.447 147.354 103.954 147.24 104.462C146.8 106.57 144.934 107.509 142.985 107.974C140.99 108.408 138.622 108.338 137.225 106.635C135.828 104.931 135.606 102.29 135.237 100.202C134.232 94.7336 133.575 89.1632 133.206 83.6229C133.063 81.6579 132.593 79.2226 133.443 77.3666C133.823 76.5278 134.475 75.8443 135.292 75.4157C135.849 75.1145 136.433 74.9709 137.019 75.0706C137.355 75.1332 137.573 75.2166 137.881 75.1216C138.11 75.0405 138.358 74.8343 138.627 74.7463C141.062 73.5856 143.713 72.9555 146.387 72.6869C148.549 72.5086 150.778 72.481 152.952 72.8287C156.515 73.4592 159.585 75.4359 160.966 78.8886C161.182 79.4192 161.318 79.9637 161.462 80.5477C161.585 81.0134 161.779 81.4259 161.941 81.8847C162.24 82.888 162.389 83.9586 162.326 84.985C162.259 86.9059 161.672 88.8778 160.344 90.3305C160.143 90.5692 159.855 90.7823 159.614 91.0279C159.413 91.2666 159.29 91.4914 159.088 91.73C158.926 91.9617 158.725 92.2004 158.562 92.4321C158.407 92.7032 158.49 92.4854 158.532 92.7217C158.599 92.8723 158.759 93.0878 158.866 93.2315C159.547 94.3299 160.3 95.3749 161.085 96.3737C161.825 97.34 162.596 98.2599 163.479 99.1197C163.924 99.5692 164.369 100.019 164.742 100.522C165.054 100.913 165.237 101.49 165.615 101.789Z" fill="black"/>
<path d="M176.811 85.8702C178.073 85.6607 179.296 85.7011 180.539 85.6166C179.6 83.8667 178.78 81.6105 177.085 80.432C177.012 81.2145 177.05 81.9379 177.017 82.7139C176.95 83.7791 176.877 84.8049 176.811 85.8702ZM192.906 89.7692C194.403 92.4402 195.873 95.9266 194.22 98.9174C193.897 99.6602 193.154 100.554 192.312 100.856C191.891 101.007 191.549 100.901 191.095 100.855C190.812 100.861 190.536 100.907 190.286 100.867C189.708 100.801 189.182 100.564 188.715 100.195C187.604 99.3659 186.796 98.1619 186.113 96.9777C185.759 96.3067 185.404 95.6356 185.089 94.9581C184.912 94.6226 184.774 94.2805 184.636 93.9384C184.531 93.7937 184.544 93.6293 184.347 93.662C184.183 93.6487 183.854 93.8655 183.702 93.9311C181.69 94.7515 179.559 95.3483 177.428 95.7017C177.27 95.7279 177.145 95.7081 176.987 95.7342C176.645 95.8721 176.862 95.7144 176.816 95.9248C176.757 96.0563 176.802 96.3325 176.789 96.4969C176.802 96.8191 176.782 97.1874 176.755 97.5161C176.709 98.2132 176.623 98.9167 176.418 99.6399C176.062 100.915 175.371 102.125 174.193 102.847C172.91 103.668 171.161 104.121 169.774 103.337C168.065 102.323 168.336 100.291 168.291 98.5551C168.144 94.2411 168.239 89.9274 168.538 85.6203C168.711 83.4833 168.923 81.3397 169.181 79.229C169.208 79.1435 169.194 79.0646 169.221 78.9791C169.215 78.4531 169.248 77.9204 169.288 77.4273C169.209 77.1971 169.17 76.9603 169.124 76.6841C169.111 76.1185 169.296 75.5203 169.671 75.0931C170.311 72.8381 171.64 71.0767 174.199 69.8819C174.272 69.8294 174.311 69.8228 174.384 69.7703C174.463 69.7572 174.502 69.7507 174.535 69.7046C174.614 69.6916 174.653 69.685 174.726 69.6325C174.844 69.6128 174.956 69.5537 175.074 69.5341C175.995 68.9759 177.153 68.865 178.132 69.6351C178.408 69.8326 178.684 70.0301 178.96 70.2276C179.302 70.3331 179.664 70.557 179.999 70.8663C180.584 71.2153 181.175 71.6037 181.701 72.0842C182.503 72.7622 183.166 73.5847 183.678 74.4728C183.849 74.7689 184.02 75.0649 184.197 75.4005C184.591 76.3082 185.215 77.1373 185.727 78.0255C186.239 78.9136 186.712 79.8083 187.185 80.703C188.124 82.453 189.024 84.2095 190.219 85.7952C191.158 87.0585 192.071 88.4073 192.906 89.7692Z" fill="black"/>
<path d="M207.106 66.3668C208.009 67.7223 207.883 69.4837 208.088 71.0307C208.275 72.9854 208.542 74.9276 208.776 76.9155C209.199 80.6148 209.511 84.3723 210.132 88.0403C210.507 90.4108 211.254 93.0868 210.492 95.4349C210.12 96.6682 209.291 97.5689 208.052 97.927C206.779 98.3309 205.265 98.4895 203.964 98.4526C201.4 98.3724 200.068 96.3558 199.35 94.1206C198.49 91.5028 198.046 88.6977 197.496 85.9904C196.821 82.493 196.225 78.983 195.662 75.4273C195.393 73.7284 195.118 71.99 194.882 70.2454C194.695 69.0602 194.586 67.8624 195.678 67.0822C196.075 66.7764 196.57 66.5766 197.089 66.5348C197.287 66.5035 197.491 66.5118 197.655 66.5263C197.78 66.547 197.911 66.6073 198.029 66.5885C198.187 66.5635 198.214 66.4782 198.393 66.3284C198.83 66.0163 199.422 65.9225 199.963 65.756C200.425 65.6019 200.932 65.4811 201.439 65.3603C203.277 64.9479 205.858 64.6205 207.106 66.3668Z" fill="black"/>
<path d="M234.828 64.6649C235.769 68.7298 236.201 72.9123 236.819 76.9857C237.382 80.7032 238.025 84.4087 238.346 88.1226C238.405 89.0442 238.458 89.9263 238.59 90.7963C238.692 91.4686 238.538 92.0583 238.181 92.6384C237.785 93.2245 237.324 93.6584 236.631 93.885C236.281 93.9786 235.952 93.9474 235.59 93.9619C235.274 94.0099 234.924 94.1034 234.562 94.1178C231.344 94.2418 229.009 91.1166 227.247 88.835C226.744 88.1832 226.234 87.4918 225.691 86.8459C225.109 86.206 224.261 85.6872 223.533 85.1504C222.069 84.0373 220.639 82.8786 219.276 81.6289C219.545 82.5996 219.814 83.5702 220.082 84.5409C220.653 86.4368 221.184 88.3386 221.557 90.2645C221.641 90.8181 221.765 91.3658 221.77 91.9315C221.751 92.339 221.725 92.7069 221.831 93.1359C221.978 93.8418 221.725 94.5681 221.367 95.1482C220.904 95.8254 220.38 96.1071 219.607 96.3457C218.682 96.6478 217.763 96.9895 216.832 97.2521C216.363 97.3637 215.895 97.4752 215.442 97.4225C215.028 97.3639 214.682 97.2141 214.308 97.1495C213.572 97.0992 212.913 96.7542 212.427 96.221C211.936 95.6482 211.664 94.9208 211.51 94.1754C211.321 93.1927 211.052 92.222 210.908 91.2728C210.602 89.2559 210.539 87.2425 210.352 85.2076C209.926 81.0646 208.94 76.9661 208.237 72.8652C208.081 71.8369 207.92 70.7691 207.764 69.7409C207.632 68.8708 207.409 67.9337 207.435 67.0397C207.437 65.9874 208.062 65.043 209.009 64.6162C209.91 64.1558 211.002 64.1521 211.877 64.5858C212.099 64.7139 212.326 64.8817 212.515 65.0554C212.748 65.2627 213.049 65.3789 213.362 65.5742C213.726 65.8426 214.012 66.123 214.437 66.2608C214.863 66.3985 215.249 66.5423 215.652 66.8047C217.217 67.7812 218.327 69.2311 219.723 70.4353C221.177 71.7522 222.597 73.1146 223.984 74.5226C224.321 74.876 224.703 75.2631 225.04 75.6166C225.377 75.9701 225.814 76.1869 226.252 76.4038C226.428 76.4984 226.753 76.7728 226.996 76.7764C227.075 76.7644 227.267 76.6948 227.34 76.6433C227.419 76.6313 227.617 76.6013 227.69 76.5497C227.836 76.4466 227.723 76.5042 227.785 76.3736C227.834 76.1638 227.758 75.9325 227.728 75.7348C227.373 73.9276 227.024 72.1599 226.63 70.3587C226.241 68.5971 225.852 66.8354 225.865 65.0534C225.881 63.5541 226.097 61.7816 227.504 60.9209C228.174 60.5361 229.117 60.3526 229.841 60.3237C230.723 60.2708 231.471 60.4001 232.227 60.8518C233.609 61.6941 234.47 63.101 234.828 64.6649Z" fill="black"/>
<path d="M262.418 83.7534C264.399 83.4772 266.286 82.5275 267.863 81.3787C268.163 81.2157 268.276 81.1595 268.317 80.8711C268.323 80.6279 268.285 80.3506 268.257 80.1525C268.23 79.6716 268.169 79.2358 268.109 78.8C267.971 77.8096 267.798 76.8643 267.541 75.8905C267.061 74.1805 266.382 72.4981 265.555 70.9171C264.206 68.4801 262.36 65.6682 259.631 64.6352C259.926 71.0963 260.861 77.5087 262.418 83.7534ZM278.344 74.8687C278.624 75.7182 278.791 76.6238 278.872 77.5009C278.954 78.378 278.912 79.2321 278.79 80.0972C278.663 80.9226 278.327 81.6965 278.075 82.4989C277.824 83.3014 277.685 84.0476 277.129 84.6907C276.885 84.967 276.59 85.1697 276.25 85.3383C275.915 85.5465 275.632 85.8284 275.303 86.0762C274.032 87.1015 272.429 87.7693 270.894 88.3468C269.212 89.0257 267.468 89.5516 265.69 89.8398C264.785 90.0065 263.908 90.0885 263.019 90.0911C262.618 90.1068 262.211 90.0828 261.78 90.1832C261.429 90.2725 261.073 90.3222 260.677 90.3775C259.216 90.6215 257.609 90.684 256.169 90.1984C253.197 89.1589 252.715 85.9951 252.413 83.2505C251.978 79.5551 251.114 75.9601 250.368 72.3485C249.967 70.3446 249.572 68.3804 249.256 66.4051C249.112 65.375 248.974 64.3846 248.836 63.3942C248.771 62.636 248.83 61.9008 249.262 61.2347C249.632 60.6985 250.153 60.3835 250.759 60.097C251.524 59.7884 252.289 59.4799 253.042 59.092C254.816 58.1985 256.454 57.2027 258.346 56.5755C261.438 55.5789 264.623 55.5386 267.451 57.2847C270.234 58.9967 272.25 61.8658 273.96 64.5755C274.95 66.1741 275.827 67.8288 276.551 69.5453C277.281 71.3013 277.773 73.0905 278.344 74.8687Z" fill="black"/>
<path d="M295.004 68.2559C296.273 68.0908 297.494 68.1741 298.739 68.1332C297.862 66.3514 297.122 64.0678 295.468 62.8307C295.368 63.6102 295.381 64.3345 295.321 65.1087C295.217 66.171 295.108 67.1936 295.004 68.2559ZM310.952 72.7165C312.355 75.4384 313.702 78.9742 311.946 81.9052C311.597 82.6362 310.822 83.5034 309.97 83.7755C309.544 83.9116 309.206 83.7942 308.754 83.7319C308.472 83.7284 308.194 83.7645 307.946 83.7161C307.37 83.6296 306.852 83.3742 306.399 82.9895C305.318 82.1216 304.553 80.89 303.912 79.6826C303.581 78.9995 303.25 78.3165 302.959 77.6283C302.794 77.2868 302.668 76.9401 302.542 76.5934C302.442 76.4451 302.461 76.2813 302.263 76.3071C302.099 76.288 301.763 76.4931 301.609 76.5534C299.569 77.3028 297.418 77.8245 295.276 78.103C295.117 78.1236 294.993 78.0994 294.835 78.1201C294.488 78.2458 294.71 78.0959 294.657 78.3045C294.593 78.4338 294.629 78.7115 294.61 78.8753C294.612 79.1978 294.579 79.5651 294.541 79.8928C294.47 80.5877 294.359 81.2878 294.129 82.0034C293.729 83.2656 292.996 84.4501 291.793 85.1308C290.482 85.9063 288.718 86.2971 287.359 85.4654C285.687 84.3921 286.029 82.371 286.045 80.6345C286.049 76.318 286.295 72.0102 286.745 67.7163C286.993 65.5866 287.28 63.4518 287.612 61.3515C287.641 61.267 287.631 61.1876 287.66 61.1031C287.673 60.5772 287.725 60.046 287.782 59.5546C287.711 59.3217 287.68 59.0837 287.644 58.8061C287.651 58.2404 287.857 57.649 288.246 57.2353C288.965 55.004 290.355 53.2904 292.955 52.186C293.029 52.136 293.068 52.1308 293.143 52.0809C293.222 52.0705 293.262 52.0654 293.296 52.0206C293.375 52.0102 293.415 52.0051 293.489 51.9551C293.608 51.9396 293.722 51.8845 293.841 51.869C294.781 51.3434 295.942 51.2731 296.893 52.0771C297.162 52.2842 297.431 52.4912 297.7 52.6983C298.038 52.8157 298.392 53.0521 298.716 53.373C299.288 53.7422 299.866 54.1512 300.374 54.6498C301.152 55.3554 301.786 56.2007 302.267 57.1062C302.427 57.4081 302.587 57.7099 302.753 58.0514C303.115 58.9725 303.709 59.8229 304.19 60.7285C304.671 61.634 305.112 62.5447 305.553 63.4555C306.43 65.2372 307.268 67.0242 308.407 68.6508C309.301 69.9463 310.167 71.3263 310.952 72.7165Z" fill="black"/>
<path d="M339.24 50.7504C340.059 54.8414 340.368 59.0349 340.865 63.1248C341.318 66.8573 341.851 70.5802 342.062 74.302C342.093 75.2249 342.12 76.1082 342.226 76.9817C342.308 77.6568 342.138 78.2416 341.764 78.8109C341.35 79.385 340.877 79.8051 340.177 80.0111C339.824 80.0943 339.497 80.0534 339.135 80.0572C338.817 80.0958 338.464 80.1789 338.102 80.1826C334.882 80.2113 332.641 77.0184 330.947 74.6857C330.463 74.0192 329.974 73.313 329.45 72.6514C328.887 71.9945 328.055 71.4509 327.343 70.8928C325.913 69.7368 324.518 68.5363 323.193 67.2468C323.433 68.225 323.672 69.2032 323.912 70.1815C324.426 72.0934 324.901 74.0101 325.217 75.9461C325.285 76.502 325.392 77.0531 325.38 77.6187C325.349 78.0254 325.313 78.3924 325.406 78.8244C325.532 79.5343 325.257 80.2528 324.883 80.8221C324.399 81.4852 323.868 81.7513 323.088 81.967C322.154 82.2416 321.225 82.556 320.287 82.7909C319.815 82.8885 319.343 82.9861 318.892 82.9201C318.481 82.8492 318.139 82.6893 317.767 82.6136C317.033 82.5416 316.384 82.1772 315.915 81.6299C315.441 81.0428 315.19 80.3076 315.059 79.558C314.898 78.5702 314.658 77.5919 314.543 76.6389C314.297 74.6138 314.294 72.5995 314.167 70.5599C313.863 66.4062 312.999 62.2803 312.418 58.1603C312.292 57.1279 312.162 56.0558 312.037 55.0234C311.931 54.1498 311.735 53.2065 311.788 52.3136C311.821 51.2619 312.474 50.3363 313.433 49.9378C314.348 49.5043 315.439 49.5328 316.301 49.9922C316.519 50.1269 316.741 50.3013 316.924 50.4806C317.152 50.6947 317.449 50.8197 317.756 51.0242C318.112 51.3033 318.389 51.592 318.81 51.7423C319.232 51.8925 319.613 52.0477 320.009 52.3219C321.544 53.3442 322.61 54.8264 323.97 56.0714C325.385 57.4307 326.764 58.8345 328.109 60.2829C328.435 60.6462 328.806 61.0444 329.132 61.4077C329.458 61.771 329.889 62.0007 330.32 62.2304C330.493 62.3302 330.81 62.6141 331.053 62.6249C331.132 62.6152 331.326 62.5514 331.4 62.502C331.48 62.4924 331.678 62.4682 331.753 62.4189C331.902 62.3201 331.788 62.3743 331.853 62.2456C331.908 62.0374 331.839 61.8039 331.815 61.6054C331.514 59.7885 331.217 58.0113 330.876 56.1992C330.54 54.4268 330.204 52.6545 330.269 50.8735C330.329 49.3754 330.598 47.61 332.03 46.7913C332.711 46.4265 333.659 46.271 334.383 46.2636C335.266 46.2368 336.01 46.3882 336.753 46.8621C338.109 47.7449 338.928 49.1766 339.24 50.7504Z" fill="black"/>
<path d="M371.955 69.6677C372.869 70.2914 373.512 71.3876 373.635 72.5008C373.857 75.253 371.448 77.1279 368.855 76.9707C366.342 76.8047 364.078 74.5186 364.434 71.904C364.648 70.5525 365.572 69.4447 366.836 68.8629C367.95 68.3782 369.164 68.4457 370.344 68.5573C370.997 68.6463 371.567 69.0665 371.911 69.6323C371.911 69.6323 371.95 69.6279 371.955 69.6677Z" fill="black"/>
<path d="M413.819 57.8792C414.777 59.03 415.664 60.2683 416.36 61.606C417.465 63.8276 417.842 66.4029 416.492 68.5873C415.356 70.5091 413.31 71.7577 411.295 72.5208C410.714 72.7394 410.165 72.8744 409.615 73.0095C408.991 73.1922 408.413 73.4506 407.784 73.5935C406.495 73.963 405.185 74.1334 403.86 74.1446C401.085 74.1391 398.578 73.1825 396.47 71.3824C395.32 70.331 394.175 69.3194 393.359 67.9936C392.461 66.6358 391.781 65.0553 391.463 63.479C391.316 62.8103 391.05 62.1534 391.102 61.4649C391.154 60.7763 391.489 60.0999 391.999 59.5668C392.799 58.7235 393.978 58.0435 395.196 58.1636C395.848 58.2595 396.286 58.6179 396.807 59.0083C397.324 59.3588 397.722 59.7212 398.132 60.203C398.967 61.3259 399.563 62.4725 400.657 63.3686C401.576 64.1214 403.248 65.1611 404.414 64.3617C405.282 63.793 405.056 62.3282 404.424 61.6274C403.97 61.1097 403.135 60.7908 402.506 60.5318C401.79 60.201 400.998 59.918 400.246 59.631C399.493 59.3441 398.694 58.9814 397.91 58.778C397.253 58.6423 396.588 58.427 395.96 58.168C393.314 57.0242 391.249 54.8579 390.259 52.1827C389.27 49.5075 389.554 46.7056 391.127 44.3383C392.629 42.0585 394.962 40.4598 397.439 39.49C399.875 38.5241 402.642 37.646 405.272 37.8265C406.53 37.9427 407.935 38.3255 408.902 39.1539C409.252 39.4407 409.367 39.791 409.602 40.1294C409.828 40.3883 410.214 40.6313 410.477 40.8463C410.962 41.2804 411.451 41.7543 411.901 42.2322C412.804 43.2277 413.56 44.3585 414.2 45.541C414.589 46.2258 414.935 46.8747 415.245 47.5674C415.595 48.2562 415.858 48.8733 415.973 49.6256C416.123 50.3341 416.262 50.9233 416.055 51.6674C415.911 52.2445 415.529 52.8453 415.175 53.3227C414.828 53.8797 414.306 54.2934 413.685 54.5159C413.032 54.822 412.416 54.6824 411.687 54.6342C410.919 54.59 410.258 54.4145 409.578 54.04C408.981 53.6974 408.536 53.2594 408.018 52.9088C406.861 52.1798 406.041 51.2162 405.286 50.0854C404.578 49.0303 403.862 47.8956 402.385 48.0022C401.267 48.0732 400.056 48.8368 400.303 50.0986C400.438 50.6479 400.772 51.1775 401.098 51.6274C401.555 52.1849 402.248 52.2768 402.908 52.4523C404.066 52.7793 405.324 52.8954 406.486 53.2622C407.899 53.7247 409.14 54.4856 410.453 55.1589C411.762 55.7925 412.864 56.7682 413.819 57.8792Z" fill="black"/>
<path d="M450.07 39.7659C450.143 40.5627 450.092 41.3304 449.838 42.0764C448.787 45.5454 444.712 46.6778 441.486 46.9702C441.366 46.981 440.841 46.9483 440.769 47.0352C440.696 47.1221 440.747 47.6798 440.758 47.7993C440.765 48.3208 440.736 48.8857 440.746 49.4471C440.76 50.49 440.775 51.533 440.829 52.5724C440.883 53.6118 440.861 54.6982 441.034 55.7267C441.248 56.7516 441.501 57.7729 441.714 58.7979C442.141 60.8477 442.492 62.9446 442.723 65.0524C442.864 66.606 442.838 68.0944 441.306 68.916C440.69 69.2128 439.969 69.238 439.346 69.4551C438.532 69.7699 437.691 69.8059 436.873 69.6391C435.236 69.3055 433.926 68.139 433.191 66.6794C432.456 65.2197 432.228 63.5936 432.004 62.0074C431.657 59.9503 431.31 57.8933 430.927 55.8796C430.536 53.7863 430.109 51.7365 429.643 49.6903C429.52 49.2194 429.44 48.7848 429.361 48.3502C429.299 48.1148 429.278 47.8758 429.22 47.6802C429.147 47.3253 429.071 47.3724 428.742 47.2818C427.797 47.0461 426.848 46.7706 425.896 46.4553C424.407 45.9877 422.984 45.3536 421.876 44.2089C421.294 43.5388 420.863 42.7745 420.939 41.8438C420.983 41.4382 421.153 41.1015 421.36 40.7213C421.53 40.3846 421.501 40.0659 421.628 39.6929C422.186 37.8751 423.932 37.6366 425.576 37.608C427.462 37.5977 429.302 37.9531 431.189 37.9428C433.152 37.8854 435.068 37.3101 436.947 36.7783C438.831 36.2863 440.703 35.6748 442.601 35.3421C444.303 35.0674 446.077 35.1475 447.609 36.0931C448.923 36.8576 449.93 38.2123 450.07 39.7659Z" fill="black"/>
<path d="M467.51 44.4802C465.772 46.7893 465.472 49.9844 466.298 52.7263C466.836 54.408 467.953 56.2833 469.896 56.4858C471.961 56.7184 473.767 55.2465 474.332 53.3141C474.853 51.3452 474.295 49.4242 473.315 47.7384C472.755 46.7808 472.115 45.8298 471.253 45.0975C470.135 44.1855 468.846 44.1303 467.51 44.4802ZM483.9 46.633C483.975 47.55 484.05 48.4669 484.125 49.3839C484.477 53.2079 484.613 57.3305 482.976 60.8755C481.303 64.4636 477.888 66.388 474.021 66.7039C473.024 66.7853 472.021 66.787 471.025 66.8684C469.905 66.9197 468.779 66.8913 467.643 66.7433C465.498 66.5172 463.289 66.0153 461.328 65.0919C458.111 63.5486 455.901 60.5587 454.979 57.1423C454.111 53.8822 453.788 50.417 454.036 47.0657C454.327 43.751 455.296 40.3809 457.532 37.7903C458.045 37.1865 458.727 36.6894 459.279 36.0824C459.828 35.4355 460.696 35.2443 461.467 34.8602C462.591 34.3671 463.764 33.9904 464.983 33.6901C467.738 33.0236 470.602 32.7094 473.435 32.9997C475.866 33.2827 478.579 34.0645 480.11 36.1066C480.468 36.559 480.793 37.0943 480.961 37.6825C481.272 38.5401 481.899 39.3317 482.289 40.1827C483.216 42.194 483.641 44.4469 483.9 46.633Z" fill="black"/>
<path d="M516.537 34.1585C517.157 38.2844 517.261 42.4879 517.56 46.5971C517.832 50.3472 518.184 54.0915 518.214 57.8191C518.201 58.7425 518.185 59.626 518.248 60.5037C518.298 61.1819 518.099 61.7578 517.697 62.3083C517.256 62.8617 516.764 63.2584 516.054 63.4302C515.698 63.4962 515.373 63.4395 515.011 63.4257C514.692 63.4489 514.336 63.5148 513.974 63.501C510.756 63.3736 508.672 60.0758 507.093 57.6638C506.642 56.9747 506.188 56.2456 505.697 55.5594C505.167 54.876 504.362 54.2927 503.678 53.7007C502.305 52.4768 500.97 51.2102 499.709 49.8579C499.901 50.8466 500.093 51.8353 500.285 52.824C500.706 54.7586 501.088 56.6961 501.309 58.6451C501.35 59.2037 501.43 59.7593 501.391 60.3236C501.34 60.7284 501.286 61.0932 501.358 61.5292C501.45 62.2444 501.14 62.9487 500.739 63.4991C500.224 64.1381 499.68 64.3781 498.891 64.5557C497.945 64.7848 497.002 65.0538 496.053 65.243C495.577 65.3176 495.101 65.3923 494.654 65.3044C494.246 65.2137 493.913 65.0374 493.545 64.9438C492.815 64.8363 492.185 64.4409 491.743 63.8714C491.297 63.2621 491.083 62.5157 490.988 61.7606C490.875 60.7661 490.683 59.7774 490.614 58.8199C490.466 56.7853 490.561 54.7731 490.533 52.7298C490.431 48.5662 489.768 44.4033 489.387 40.26C489.312 39.2228 489.234 38.1456 489.158 37.1083C489.095 36.2306 488.945 35.2789 489.041 34.3897C489.125 33.3408 489.823 32.448 490.8 32.0963C491.734 31.7077 492.823 31.7891 493.661 32.2897C493.872 32.4348 494.086 32.6198 494.26 32.8077C494.477 33.0326 494.768 33.1719 495.065 33.391C495.407 33.687 495.669 33.9887 496.083 34.1593C496.496 34.3298 496.87 34.5032 497.252 34.7963C498.735 35.8918 499.729 37.4239 501.027 38.7333C502.374 40.1596 503.684 41.6286 504.956 43.1404C505.265 43.5191 505.616 43.9348 505.924 44.3135C506.232 44.6921 506.651 44.9424 507.071 45.1927C507.239 45.3009 507.541 45.5997 507.783 45.6223C507.863 45.6165 508.06 45.5621 508.137 45.5164C508.217 45.5106 508.416 45.4961 508.493 45.4505C508.647 45.3591 508.53 45.4077 508.601 45.2822C508.666 45.0769 508.609 44.8404 508.595 44.641C508.382 42.8116 508.171 41.0221 507.919 39.1956C507.669 37.409 507.419 35.6224 507.57 33.8468C507.703 32.3533 508.057 30.6031 509.527 29.8547C510.224 29.5233 511.179 29.4139 511.903 29.4416C512.786 29.4577 513.522 29.6449 514.241 30.1542C515.553 31.1017 516.301 32.5714 516.537 34.1585Z" fill="black"/>
<path d="M542.803 50.4045C546.357 50.8171 547.683 53.9784 547.771 57.2195C547.829 58.7389 546.687 60.2955 545.045 60.321C543.645 60.371 542.246 60.421 540.846 60.471C538.144 60.8453 535.44 61.1797 532.734 61.4742C530.863 61.6747 528.999 61.9951 527.195 61.991C526.519 62.0745 525.843 62.1581 525.205 62.1993C524.529 62.2828 523.88 62.1643 523.407 61.6736C523.317 61.5191 523.229 61.4045 523.139 61.2499C522.762 60.9936 522.499 60.6498 522.274 60.2635C522.232 60.2261 522.187 60.1489 522.144 60.1115C521.621 59.4638 521.37 58.6783 521.157 57.8503C520.73 56.1943 520.619 54.4778 520.349 52.7717C520.063 50.826 519.818 48.8777 519.612 46.9269C519.161 43.0279 518.904 39.0361 518.729 35.0792C518.68 34.3207 518.754 33.5945 519.035 32.9752C519.155 31.7249 520.041 30.5456 521.68 30.4801C527.194 30.2054 532.689 29.6513 538.125 28.7804C540.507 28.4266 542.841 27.9557 544.686 29.8411C546.534 31.7664 545.839 34.0557 546.27 36.3929C546.575 38.0166 544.941 39.4045 543.507 39.5369C539.842 39.893 533.854 40.2784 530.209 40.3126C530.213 40.9938 530.217 41.6749 530.26 42.3535C531.053 42.2223 534.202 41.9395 535 41.8881C536.041 41.8612 537.211 41.9863 538.093 42.611C539.899 43.8976 539.725 46.7948 538.338 48.2869C537.138 49.5667 533.167 50.1429 531.54 50.4079C531.603 50.7646 531.706 51.1188 531.809 51.4729C532.802 51.3288 536.11 51.0357 537.103 50.8917C538.931 50.6537 540.944 50.1634 542.803 50.4045Z" fill="black"/>
<path d="M571.414 31.519C571.256 33.8505 571.179 36.1779 571.184 38.5409C571.19 38.6607 571.159 38.8226 571.207 38.9803C571.266 39.3377 571.133 39.1043 571.379 39.2115C571.585 39.3208 571.907 39.3439 572.149 39.3712C572.595 39.4678 573.124 39.6401 573.599 39.5349C574.514 39.4064 575.487 38.8743 576.307 38.4705C577.087 38.0688 577.867 37.6671 578.603 37.1877C579.105 36.8407 579.872 36.1993 579.874 35.4782C579.857 35.1586 579.634 34.7298 579.538 34.4145C579.397 34.0214 579.256 33.6282 579.077 33.2772C578.938 32.924 578.745 32.2933 578.492 32.0663C578.2 31.8414 577.515 31.7575 577.191 31.6945C575.328 31.3122 573.276 31.1402 571.414 31.519ZM589.948 55.5747C590.583 56.2221 590.947 57.0441 590.874 57.9292C590.719 59.5396 589.195 61.0221 587.538 60.7491C586.972 60.6588 586.417 60.7682 585.858 60.7978C585.297 60.7874 584.776 60.7749 584.208 60.6446C583.075 60.4241 581.967 59.9218 581.088 59.2072C579.414 57.8536 578.865 55.7997 577.618 54.1833C576.89 53.3004 576.047 52.5038 575.284 51.7029C574.861 51.2847 574.476 50.8243 574.171 50.3598C574.045 50.2463 573.86 49.7754 573.696 49.7039C573.572 49.6304 572.864 49.8681 572.704 49.8765C572.426 49.9312 571.983 49.8745 571.749 50.007C571.476 50.1416 571.55 50.0176 571.567 50.3371C571.575 50.4969 571.585 50.6966 571.554 50.8585C571.586 51.4577 571.657 52.0547 571.687 52.614C571.721 53.2531 571.754 53.8922 571.746 54.4935C571.733 55.0148 571.559 55.5047 571.385 55.9946C570.691 58.034 568.726 58.7387 566.735 58.964C564.702 59.1515 562.36 58.7946 561.18 56.9342C560 55.0739 560.101 52.4249 559.989 50.3079C559.656 44.7577 559.68 39.1486 559.988 33.6047C560.084 31.6368 559.913 29.1624 560.983 27.4235C561.462 26.6372 562.192 26.0379 563.056 25.7118C563.644 25.4805 564.241 25.4089 564.811 25.579C565.137 25.682 565.343 25.7913 565.66 25.7344C565.898 25.6818 566.169 25.5073 566.447 25.4526C569.005 24.5964 571.713 24.2932 574.4 24.3515C576.567 24.4373 578.783 24.6807 580.898 25.29C584.359 26.3489 587.166 28.6841 588.117 32.2789C588.266 32.8318 588.336 33.3889 588.407 33.986C588.473 34.4632 588.616 34.8962 588.721 35.3714C588.896 36.4036 588.913 37.4842 588.726 38.4955C588.425 40.3939 587.604 42.2799 586.109 43.5605C585.88 43.7729 585.569 43.9496 585.3 44.1641C585.071 44.3764 584.922 44.5846 584.693 44.797C584.503 45.0073 584.274 45.2196 584.085 45.4299C583.898 45.6801 584.007 45.4741 584.02 45.7137C584.068 45.8714 584.201 46.1047 584.289 46.2603C584.832 47.4333 585.452 48.5622 586.11 49.6489C586.727 50.6979 587.381 51.7048 588.152 52.6654C588.539 53.1657 588.926 53.666 589.235 54.2104C589.498 54.6372 589.61 55.2321 589.948 55.5747Z" fill="black"/>
<path d="M600.901 41.2165C602.18 41.16 603.389 41.3467 604.633 41.4117C603.911 39.5619 603.367 37.2236 601.825 35.8505C601.659 36.6186 601.61 37.3414 601.484 38.1077C601.29 39.1573 601.095 40.1669 600.901 41.2165ZM616.413 47.0165C617.579 49.8477 618.621 53.4852 616.621 56.2563C616.212 56.9551 615.366 57.7533 614.494 57.952C614.058 58.0514 613.731 57.9057 613.287 57.8052C613.005 57.7777 612.725 57.79 612.482 57.7207C611.915 57.5856 611.422 57.2872 611.003 56.8653C609.999 55.9087 609.342 54.6165 608.806 53.359C608.534 52.6503 608.262 51.9416 608.031 51.2312C607.895 50.8768 607.799 50.5207 607.703 50.1646C607.616 50.0083 607.649 49.8467 607.449 49.8555C607.288 49.8226 606.935 49.9984 606.777 50.0454C604.68 50.6187 602.493 50.9557 600.335 51.0512C600.175 51.0582 600.054 51.0236 599.894 51.0307C599.538 51.1265 599.772 50.996 599.701 51.1993C599.627 51.3228 599.639 51.6025 599.606 51.7641C599.58 52.0855 599.516 52.4487 599.45 52.772C599.321 53.4584 599.151 54.1465 598.861 54.84C598.355 56.0636 597.524 57.1815 596.268 57.7575C594.896 58.4188 593.104 58.6582 591.822 57.714C590.246 56.5025 590.759 54.5179 590.923 52.7889C591.293 48.4884 591.905 44.2172 592.718 39.977C593.146 37.8761 593.613 35.7734 594.123 33.7088C594.159 33.6272 594.155 33.5472 594.192 33.4655C594.249 32.9425 594.346 32.4177 594.444 31.9329C594.394 31.6949 594.383 31.4551 594.371 31.1754C594.426 30.6124 594.681 30.0406 595.105 29.6615C596.01 27.4993 597.541 25.9101 600.225 25.0306C600.303 24.9871 600.343 24.9853 600.421 24.9418C600.501 24.9383 600.541 24.9365 600.579 24.8948C600.659 24.8913 600.699 24.8895 600.777 24.846C600.897 24.8407 601.015 24.7954 601.135 24.7901C602.117 24.3463 603.279 24.375 604.159 25.2569C604.409 25.4861 604.66 25.7152 604.91 25.9444C605.237 26.0901 605.569 26.3557 605.864 26.7029C606.403 27.1195 606.944 27.5761 607.408 28.1161C608.123 28.8852 608.683 29.7813 609.085 30.7245C609.219 31.0389 609.353 31.3533 609.489 31.7076C609.771 32.6561 610.292 33.5539 610.694 34.4971C611.096 35.4402 611.458 36.3851 611.82 37.3301C612.542 39.1799 613.225 41.0316 614.222 42.7492C615.003 44.116 615.748 45.5645 616.413 47.0165Z" fill="black"/>
<path d="M632.09 25.5155C632.826 26.9688 632.491 28.7027 632.51 30.263C632.463 32.2262 632.497 34.1863 632.493 36.1879C632.473 39.9113 632.335 43.6792 632.515 47.395C632.605 49.7933 633.029 52.5393 631.993 54.7799C631.477 55.9602 630.546 56.7558 629.273 56.9639C627.962 57.2135 626.44 57.1909 625.152 56.9993C622.615 56.6146 621.533 54.4538 621.086 52.149C620.544 49.4475 620.437 46.6095 620.213 43.856C619.959 40.3031 619.785 36.7471 619.649 33.1497C619.584 31.4309 619.518 29.6721 619.492 27.9119C619.447 26.7127 619.481 25.5106 620.658 24.8658C621.088 24.6094 621.604 24.4699 622.125 24.4902C622.325 24.4827 622.526 24.5151 622.687 24.5491C622.809 24.5845 622.932 24.6599 623.052 24.6554C623.211 24.6494 623.248 24.5679 623.444 24.4405C623.914 24.1826 624.514 24.16 625.071 24.0589C625.547 23.9609 626.065 23.9013 626.583 23.8418C628.458 23.651 631.059 23.633 632.09 25.5155Z" fill="black"/>
<path d="M663.867 26.9894C664.316 31.1374 664.247 35.3416 664.374 39.4596C664.491 43.2178 664.688 46.9735 664.563 50.6992C664.512 51.6212 664.459 52.5033 664.487 53.3829C664.508 54.0625 664.285 54.6297 663.862 55.1631C663.398 55.6978 662.889 56.0738 662.174 56.216C661.815 56.2672 661.493 56.1972 661.132 56.1684C660.812 56.1783 660.453 56.2295 660.092 56.2007C656.882 55.9402 654.937 52.559 653.459 50.0836C653.037 49.3764 652.613 48.6292 652.151 47.9232C651.649 47.2184 650.87 46.6023 650.21 45.9825C648.89 44.7029 647.608 43.382 646.404 41.9788C646.555 42.9745 646.706 43.9703 646.857 44.9661C647.198 46.9165 647.498 48.8681 647.639 50.8247C647.657 51.3844 647.714 51.9429 647.651 52.5051C647.584 52.9074 647.515 53.2697 647.569 53.7082C647.631 54.4267 647.292 55.1175 646.869 55.6509C646.328 56.268 645.774 56.4853 644.978 56.6301C644.024 56.8198 643.07 57.0495 642.114 57.1993C641.636 57.2541 641.157 57.309 640.714 57.2027C640.31 57.0952 639.984 56.9052 639.621 56.7965C638.896 56.6589 638.283 56.2377 637.864 55.6505C637.445 55.0232 637.261 54.2685 637.197 53.5101C637.126 52.5118 636.975 51.5161 636.946 50.5565C636.882 48.5175 637.06 46.511 637.117 44.4683C637.188 40.3041 636.697 36.1173 636.488 31.9618C636.456 30.9223 636.422 29.8428 636.39 28.8033C636.363 27.9237 636.253 26.9666 636.386 26.0821C636.513 25.0376 637.247 24.1745 638.238 23.8635C639.187 23.5139 640.272 23.6403 641.089 24.1752C641.294 24.3289 641.5 24.5226 641.666 24.7175C641.873 24.9512 642.158 25.1024 642.445 25.3336C642.775 25.6435 643.025 25.9559 643.431 26.1434C643.837 26.3309 644.203 26.5196 644.573 26.8283C646.009 27.9843 646.939 29.5562 648.181 30.9182C649.468 32.399 650.716 33.921 651.925 35.4842C652.217 35.8753 652.551 36.3052 652.843 36.6963C653.135 37.0874 653.544 37.3549 653.952 37.6223C654.116 37.7373 654.406 38.0484 654.647 38.081C654.727 38.0785 654.926 38.0323 655.004 37.9898C655.084 37.9873 655.284 37.9811 655.363 37.9387C655.52 37.8537 655.402 37.8975 655.478 37.775C655.552 37.5726 655.504 37.334 655.498 37.1341C655.361 35.2975 655.225 33.5008 655.048 31.6654C654.872 29.87 654.696 28.0746 654.922 26.3068C655.115 24.82 655.542 23.086 657.041 22.3991C657.752 22.0969 658.71 22.0271 659.433 22.0847C660.315 22.1373 661.042 22.3549 661.739 22.8935C663.011 23.8945 663.697 25.3939 663.867 26.9894Z" fill="black"/>
<path d="M685.995 49.2961C687.995 49.2566 689.981 48.5372 691.683 47.5834C692 47.4571 692.119 47.4148 692.194 47.1333C692.229 46.8925 692.224 46.6126 692.22 46.4126C692.25 45.9319 692.241 45.492 692.233 45.0521C692.213 44.0523 692.154 43.0933 692.014 42.0958C691.74 40.3409 691.265 38.5899 690.632 36.9221C689.581 34.3424 688.081 31.3314 685.494 29.9822C685.021 36.4328 685.189 42.9107 685.995 49.2961ZM702.862 42.3617C703.039 43.2384 703.097 44.1574 703.075 45.038C703.052 45.9187 702.909 46.7617 702.685 47.6062C702.461 48.4108 702.035 49.1394 701.69 49.9063C701.346 50.6733 701.12 51.3979 700.491 51.9704C700.216 52.2159 699.899 52.3822 699.541 52.5092C699.185 52.6763 698.869 52.9226 698.513 53.1297C697.13 53.9971 695.459 54.4702 693.867 54.8617C692.116 55.3364 690.322 55.6519 688.523 55.7274C687.604 55.7856 686.723 55.7629 685.841 55.6603C685.44 55.6282 685.039 55.5562 684.6 55.6048C684.24 55.6519 683.881 55.659 683.481 55.6669C682.002 55.7362 680.399 55.6078 679.026 54.9548C676.198 53.5703 676.095 50.3717 676.12 47.6107C676.127 43.8898 675.694 40.2177 675.381 36.5431C675.221 34.5059 675.062 32.5086 674.982 30.5098C674.962 29.47 674.942 28.4702 674.922 27.4704C674.947 26.7098 675.093 25.9868 675.601 25.3766C676.032 24.888 676.587 24.637 677.223 24.4244C678.018 24.2086 678.814 23.9929 679.609 23.6972C681.476 23.0202 683.22 22.2256 685.173 21.8269C688.361 21.2039 691.528 21.5414 694.13 23.6105C696.69 25.6403 698.352 28.7281 699.729 31.6215C700.523 33.3261 701.198 35.0732 701.713 36.8633C702.229 38.6935 702.505 40.5284 702.862 42.3617Z" fill="black"/>
<path d="M718.897 37.781C720.177 37.7676 721.379 37.995 722.62 38.102C721.961 36.2288 721.496 33.8735 720.001 32.4491C719.809 33.2112 719.736 33.932 719.584 34.6936C719.355 35.736 719.126 36.7385 718.897 37.781ZM734.204 44.1011C735.274 46.9701 736.192 50.6406 734.1 53.3427C733.667 54.0272 732.795 54.7964 731.917 54.9656C731.478 55.0502 731.156 54.8936 730.715 54.7782C730.435 54.7411 730.155 54.7441 729.914 54.6666C729.352 54.5124 728.869 54.1975 728.464 53.7617C727.494 52.7718 726.88 51.4581 726.387 50.1832C726.139 49.4658 725.892 48.7483 725.684 48.0305C725.56 47.6717 725.477 47.3126 725.393 46.9535C725.311 46.7943 725.35 46.6339 725.15 46.636C724.989 46.5977 724.631 46.7614 724.471 46.8031C722.356 47.3053 720.159 47.5683 717.999 47.5909C717.839 47.5926 717.719 47.5538 717.559 47.5555C717.2 47.6393 717.438 47.5167 717.361 47.7176C717.282 47.8384 717.285 48.1184 717.246 48.2788C717.21 48.5992 717.133 48.96 717.057 49.2808C716.904 49.9625 716.711 50.6445 716.398 51.3278C715.851 52.5336 714.982 53.6228 713.708 54.1562C712.314 54.7708 710.516 54.9496 709.265 53.9626C707.732 52.6986 708.312 50.7324 708.534 49.01C709.049 44.7244 709.804 40.4763 710.76 36.266C711.258 34.1807 711.797 32.0949 712.375 30.0488C712.414 29.9684 712.414 29.8884 712.453 29.808C712.527 29.2871 712.642 28.7659 712.757 28.2847C712.714 28.0451 712.712 27.8051 712.709 27.5252C712.783 26.9643 713.057 26.4014 713.493 26.0369C714.471 23.9065 716.055 22.3698 718.767 21.5814C718.847 21.5406 718.887 21.5402 718.966 21.4993C719.046 21.4985 719.086 21.4981 719.126 21.4577C719.206 21.4568 719.246 21.4564 719.325 21.4156C719.445 21.4143 719.565 21.3731 719.685 21.3718C720.681 20.9614 721.841 21.0292 722.691 21.9404C722.934 22.1778 723.176 22.4153 723.418 22.6528C723.74 22.8094 724.063 23.0861 724.347 23.4431C724.871 23.8777 725.396 24.3522 725.842 24.9076C726.531 25.7004 727.06 26.6149 727.43 27.5711C727.554 27.8898 727.677 28.2085 727.801 28.5673C728.051 29.5247 728.54 30.4396 728.91 31.3958C729.28 32.352 729.61 33.3086 729.94 34.2652C730.6 36.1384 731.22 38.012 732.158 39.7623C732.893 41.1547 733.588 42.6275 734.204 44.1011Z" fill="black"/>
<path d="M761.11 25.6459C761.439 29.8052 761.248 34.0056 761.257 38.1256C761.265 41.8856 761.353 45.6454 761.122 49.366C761.044 50.2861 760.965 51.1663 760.967 52.0463C760.969 52.7263 760.73 53.2868 760.291 53.8078C759.812 54.3288 759.293 54.6899 758.573 54.8115C758.213 54.8523 757.893 54.773 757.533 54.7338C757.213 54.7345 756.853 54.7752 756.493 54.736C753.292 54.383 751.445 50.947 750.039 48.43C749.638 47.7109 749.236 46.9517 748.795 46.2327C748.313 45.5137 747.552 44.8754 746.91 44.2368C745.627 42.9196 744.385 41.5622 743.221 40.1248C743.344 41.1245 743.466 42.1242 743.588 43.124C743.872 45.0834 744.116 47.0428 744.201 49.0027C744.202 49.5627 744.243 50.1226 744.164 50.6827C744.085 51.0829 744.006 51.4431 744.047 51.883C744.088 52.6029 743.73 53.2837 743.291 53.8046C742.732 54.4059 742.173 54.6071 741.373 54.7288C740.413 54.8909 739.454 55.093 738.494 55.2151C738.014 55.2561 737.534 55.2971 737.094 55.1781C736.694 55.059 736.373 54.8597 736.013 54.7404C735.293 54.582 734.692 54.1433 734.291 53.5442C733.889 52.905 733.727 52.1454 733.686 51.3855C733.644 50.3856 733.521 49.3858 733.519 48.4258C733.515 46.3858 733.751 44.3853 733.866 42.3451C734.057 38.1846 733.688 33.9854 733.599 29.8256C733.597 28.7856 733.594 27.7056 733.592 26.6656C733.59 25.7856 733.508 24.8258 733.666 23.9455C733.824 22.9051 734.582 22.0635 735.582 21.7813C736.541 21.4592 737.621 21.6169 738.422 22.1751C738.623 22.3347 738.823 22.5343 738.984 22.7339C739.184 22.9735 739.465 23.1329 739.745 23.3723C740.066 23.6916 740.306 24.011 740.707 24.2102C741.107 24.4093 741.468 24.6085 741.828 24.9277C743.231 26.1247 744.115 27.7228 745.318 29.1202C746.561 30.6375 747.764 32.1949 748.928 33.7924C749.209 34.1918 749.53 34.6311 749.81 35.0305C750.091 35.4299 750.492 35.709 750.892 35.9881C751.053 36.1078 751.333 36.4272 751.574 36.4666C751.654 36.4665 751.853 36.426 751.933 36.3859C752.013 36.3857 752.213 36.3853 752.293 36.3451C752.453 36.2647 752.333 36.305 752.413 36.1848C752.492 35.9846 752.452 35.7447 752.452 35.5447C752.368 33.7049 752.284 31.9051 752.16 30.0654C752.036 28.2656 751.912 26.4659 752.188 24.7053C752.425 23.2248 752.901 21.5037 754.42 20.8604C755.139 20.5789 756.099 20.5368 756.819 20.6152C757.699 20.6933 758.42 20.9318 759.101 21.4903C760.343 22.5276 760.987 24.0462 761.11 25.6459Z" fill="black"/>
<path d="M798.32 48.3654C799.152 49.0948 799.658 50.2606 799.646 51.3805C799.535 54.1394 796.917 55.7101 794.362 55.2414C791.887 54.7736 789.916 52.2313 790.584 49.6787C790.959 48.3628 792.01 47.3745 793.335 46.9494C794.499 46.6024 795.697 46.8159 796.854 47.0689C797.492 47.2361 798.007 47.7219 798.28 48.325C798.28 48.325 798.32 48.3254 798.32 48.3654Z" fill="black"/>
<path d="M845.809 41.8604C846.619 43.12 847.348 44.4578 847.874 45.8707C848.699 48.211 848.757 50.8131 847.148 52.8154C845.786 54.5835 843.602 55.5717 841.509 56.0821C840.905 56.2277 840.344 56.2944 839.782 56.361C839.139 56.4657 838.535 56.6514 837.893 56.7161C836.568 56.9246 835.247 56.9332 833.93 56.7818C831.178 56.4362 828.807 55.1794 826.935 53.1342C825.923 51.9498 824.91 50.8054 824.264 49.3896C823.538 47.9319 823.057 46.28 822.935 44.6766C822.872 43.9949 822.688 43.3103 822.824 42.6334C822.96 41.9564 823.375 41.3261 823.947 40.8596C824.844 40.1208 826.097 39.5904 827.291 39.859C827.927 40.0341 828.318 40.4436 828.787 40.8949C829.257 41.3062 829.608 41.7146 829.955 42.2431C830.647 43.4599 831.098 44.6709 832.074 45.6945C832.894 46.5542 834.424 47.791 835.68 47.1407C836.612 46.6828 836.567 45.2013 836.025 44.4282C835.638 43.8588 834.848 43.4399 834.256 43.1057C833.586 42.6896 832.835 42.3116 832.123 41.9346C831.412 41.5575 830.663 41.0996 829.91 40.8016C829.275 40.5864 828.641 40.2912 828.049 39.957C825.563 38.4974 823.78 36.0943 823.126 33.3179C822.472 30.5416 823.097 27.7957 824.949 25.6392C826.719 23.5607 829.231 22.2601 831.807 21.6013C834.344 20.9415 837.197 20.4093 839.786 20.9111C841.02 21.1805 842.367 21.7327 843.225 22.6734C843.537 23.001 843.609 23.3628 843.8 23.7274C843.993 24.0121 844.347 24.3006 844.581 24.5462C845.009 25.0366 845.437 25.5669 845.824 26.0963C846.598 27.195 847.21 28.4099 847.7 29.662C848.003 30.3894 848.266 31.0758 848.489 31.8014C848.752 32.5278 848.937 33.1724 848.959 33.9331C849.021 34.6548 849.087 35.2566 848.79 35.9697C848.577 36.5248 848.124 37.0741 847.713 37.5045C847.301 38.0148 846.732 38.3614 846.089 38.5061C845.403 38.7299 844.808 38.5156 844.091 38.3785C843.334 38.2405 842.7 37.9853 842.071 37.5302C841.521 37.117 841.132 36.6276 840.662 36.2163C839.602 35.3508 838.907 34.2939 838.296 33.079C837.723 31.9451 837.151 30.7311 835.673 30.6559C834.554 30.5892 833.259 31.1986 833.349 32.4811C833.415 33.0428 833.682 33.6093 833.95 34.0959C834.336 34.7052 835.012 34.8814 835.646 35.1365C836.755 35.6031 837.989 35.8725 839.098 36.3791C840.443 37.0113 841.582 37.9186 842.802 38.7479C844.024 39.5372 844.998 40.6407 845.809 41.8604Z" fill="black"/>
<path d="M877.21 28.151C877.183 28.9506 877.038 29.7063 876.695 30.4154C875.225 33.7289 871.042 34.3518 867.804 34.2453C867.684 34.2414 867.167 34.1443 867.085 34.2217C867.002 34.299 866.984 34.8587 866.98 34.9786C866.923 35.497 866.824 36.0541 866.766 36.6125C866.652 37.6493 866.538 38.6861 866.463 39.7242C866.389 40.7623 866.234 41.8378 866.28 42.8799C866.365 43.9233 866.491 44.968 866.577 46.0113C866.749 48.0981 866.839 50.2222 866.809 52.3424C866.758 53.9016 866.549 55.3755 864.928 56.0026C864.28 56.2214 863.562 56.1578 862.917 56.2967C862.07 56.5089 861.231 56.4414 860.44 56.1752C858.856 55.6429 857.699 54.3242 857.149 52.7853C856.6 51.2464 856.574 49.6046 856.546 48.0029C856.455 45.9187 856.363 43.8346 856.23 41.7891C856.1 39.6637 855.928 37.5769 855.717 35.4889C855.653 35.0065 855.627 34.5654 855.602 34.1243C855.57 33.8831 855.577 33.6433 855.544 33.4421C855.516 33.081 855.435 33.1183 855.119 32.9879C854.21 32.6378 853.302 32.2478 852.396 31.8178C850.976 31.1708 849.642 30.3665 848.683 29.0943C848.187 28.3576 847.854 27.5462 848.044 26.632C848.137 26.2348 848.347 25.9216 848.599 25.5696C848.809 25.2564 848.82 24.9366 848.992 24.582C849.769 22.8466 851.531 22.8245 853.166 22.9983C855.04 23.22 856.822 23.7988 858.695 24.0205C860.65 24.2048 862.622 23.8695 864.553 23.5727C866.483 23.316 868.416 22.9393 870.34 22.8425C872.063 22.7791 873.814 23.0768 875.218 24.2035C876.429 25.1237 877.261 26.5919 877.21 28.151Z" fill="black"/>
<path d="M894.543 35.0109C892.531 37.0854 891.834 40.2181 892.312 43.0415C892.637 44.7773 893.511 46.7771 895.414 47.2202C897.434 47.7085 899.41 46.4731 900.211 44.6262C900.974 42.7375 900.659 40.762 899.896 38.9672C899.46 37.9473 898.944 36.9239 898.18 36.0899C897.184 35.0456 895.912 34.8302 894.543 35.0109ZM910.537 39.1897C910.497 40.1088 910.457 41.0279 910.417 41.9471C910.29 45.7852 909.911 49.8926 907.845 53.206C905.738 56.5576 902.11 58.0414 898.233 57.8728C897.234 57.8293 896.239 57.706 895.24 57.6625C894.123 57.5739 893.009 57.4053 891.9 57.1169C889.8 56.6252 887.671 55.852 885.84 54.6913C882.841 52.7592 881.02 49.517 880.532 46.0125C880.077 42.6696 880.188 39.1911 880.852 35.8968C881.554 32.6443 882.935 29.4212 885.477 27.1295C886.061 26.5944 886.799 26.1861 887.423 25.6527C888.049 25.0793 888.933 24.9977 889.746 24.7127C890.922 24.3635 892.133 24.1359 893.381 23.99C896.197 23.672 899.078 23.7172 901.853 24.3584C904.23 24.9422 906.824 26.056 908.089 28.273C908.388 28.7665 908.643 29.3381 908.737 29.9427C908.938 30.8323 909.461 31.6959 909.743 32.589C910.412 34.7 910.552 36.9883 910.537 39.1897Z" fill="black"/>
<path d="M944.377 30.9232C944.47 35.0944 944.042 39.2774 943.819 43.3913C943.614 47.1457 943.49 50.9045 943.048 54.606C942.918 55.5203 942.791 56.3947 942.743 57.2734C942.706 57.9524 942.436 58.4985 941.968 58.9938C941.461 59.487 940.922 59.8182 940.197 59.8989C939.835 59.9193 939.52 59.822 939.162 59.7625C938.843 59.7452 938.481 59.7655 938.124 59.706C934.948 59.1727 933.298 55.6379 932.037 53.0455C931.677 52.3049 931.318 51.5243 930.918 50.7814C930.478 50.0364 929.754 49.3561 929.15 48.6823C927.943 47.2947 926.779 45.8693 925.699 44.3684C925.764 45.3735 925.83 46.3785 925.895 47.3836C926.068 49.3559 926.202 51.326 926.175 53.2875C926.145 53.8467 926.154 54.408 926.044 54.9628C925.942 55.3579 925.843 55.713 925.859 56.1545C925.86 56.8756 925.463 57.5351 924.996 58.0304C924.404 58.5991 923.834 58.7684 923.029 58.8448C922.061 58.9524 921.092 59.0999 920.127 59.1676C919.645 59.1815 919.164 59.1953 918.731 59.0516C918.338 58.9101 918.029 58.693 917.676 58.5536C916.966 58.3547 916.391 57.8828 916.024 57.2619C915.66 56.6012 915.541 55.8336 915.542 55.0725C915.557 54.0718 915.491 53.0668 915.543 52.1082C915.654 50.0712 916.002 48.0872 916.233 46.0568C916.659 41.9138 916.527 37.7004 916.674 33.5422C916.73 32.5037 916.789 31.4253 916.845 30.3869C916.893 29.5082 916.865 28.5452 917.073 27.6752C917.289 26.6455 918.094 25.848 919.107 25.6227C920.083 25.3553 921.153 25.5738 921.921 26.1764C922.112 26.347 922.301 26.5576 922.45 26.766C922.637 27.0165 922.908 27.1915 923.174 27.4463C923.476 27.7832 923.699 28.1158 924.087 28.3372C924.476 28.5587 924.824 28.7779 925.167 29.117C926.499 30.3913 927.291 32.0367 928.413 33.4998C929.569 35.085 930.682 36.7078 931.754 38.3685C932.012 38.7831 932.307 39.2398 932.565 39.6545C932.823 40.0691 933.207 40.3704 933.591 40.6717C933.745 40.8002 934.007 41.135 934.244 41.1879C934.324 41.1923 934.526 41.1632 934.608 41.1276C934.688 41.132 934.888 41.1428 934.97 41.1072C935.134 41.036 935.012 41.0695 935.098 40.954C935.189 40.7586 935.162 40.5168 935.173 40.3171C935.193 38.4755 935.211 36.6738 935.191 34.83C935.169 33.0261 935.147 31.2223 935.522 29.4801C935.842 28.0153 936.415 26.3239 937.967 25.7674C938.702 25.5269 939.662 25.5392 940.377 25.6581C941.251 25.7858 941.957 26.0646 942.606 26.6607C943.787 27.7665 944.344 29.319 944.377 30.9232Z" fill="black"/>
<path d="M966.761 50.2908C970.233 51.155 971.143 54.4601 970.815 57.6858C970.678 59.2001 969.346 60.5976 967.714 60.4127C966.32 60.283 964.925 60.1534 963.531 60.0238C960.803 60.0491 958.079 60.0345 955.357 59.9799C953.475 59.9393 951.586 60.0184 949.798 59.7834C949.117 59.7797 948.435 59.7761 947.797 59.735C947.116 59.7314 946.487 59.5307 946.081 58.9836C946.012 58.8188 945.94 58.6939 945.87 58.5291C945.529 58.2266 945.312 57.852 945.138 57.44C945.101 57.3975 945.066 57.3151 945.029 57.2726C944.593 56.5633 944.445 55.7521 944.339 54.9036C944.128 53.2065 944.238 51.4901 944.188 49.7633C944.154 47.7971 944.16 45.8335 944.206 43.8724C944.257 39.9476 944.514 35.9558 944.847 32.0091C944.896 31.2506 945.062 30.5398 945.42 29.9615C945.699 28.7369 946.728 27.6807 948.363 27.8257C953.866 28.2593 959.388 28.4134 964.89 28.2456C967.297 28.1998 969.673 28.0316 971.261 30.1377C972.847 32.2837 971.865 34.4653 971.994 36.8384C972.088 38.4879 970.29 39.655 968.85 39.6027C965.17 39.4866 959.182 39.1022 955.563 38.6693C955.479 39.3454 955.396 40.0214 955.352 40.7C956.155 40.6715 959.314 40.7941 960.112 40.8454C961.148 40.9519 962.293 41.2258 963.087 41.9583C964.714 43.4656 964.17 46.3166 962.604 47.6189C961.249 48.7344 957.237 48.7975 955.59 48.852C955.607 49.2139 955.664 49.5782 955.721 49.9426C956.724 49.9269 960.042 50.0598 961.045 50.044C962.889 50.0422 964.948 49.8136 966.761 50.2908Z" fill="black"/>
<path d="M997.623 35.2567C997.162 37.5476 996.781 39.8448 996.476 42.1881C996.467 42.3077 996.414 42.4641 996.442 42.6267C996.453 42.9888 996.353 42.7401 996.582 42.8785C996.772 43.0139 997.088 43.0788 997.324 43.1375C997.754 43.2917 998.256 43.5318 998.741 43.4897C999.665 43.4821 1000.7 43.082 1001.56 42.789C1002.39 42.4928 1003.22 42.1966 1004.01 41.8176C1004.55 41.5394 1005.4 41.0039 1005.49 40.2893C1005.52 39.9703 1005.35 39.5159 1005.3 39.1907C1005.21 38.7825 1005.12 38.3743 1004.99 38.0029C1004.9 37.6346 1004.79 36.984 1004.57 36.7259C1004.31 36.4647 1003.64 36.2917 1003.33 36.1869C1001.53 35.5641 999.519 35.125 997.623 35.2567ZM1012.85 61.5316C1013.39 62.2566 1013.65 63.1191 1013.46 63.9869C1013.09 65.5632 1011.39 66.8334 1009.78 66.3459C1009.23 66.1824 1008.67 66.2182 1008.11 66.1743C1007.56 66.0905 1007.04 66.0099 1006.5 65.8064C1005.4 65.4395 1004.37 64.7965 1003.59 63.973C1002.11 62.412 1001.83 60.3039 1000.81 58.5381C1000.2 57.5676 999.47 56.6674 998.818 55.7736C998.454 55.3036 998.133 54.7968 997.891 54.2963C997.781 54.1673 997.659 53.6762 997.506 53.5839C997.392 53.4948 996.659 53.6377 996.499 53.6251C996.217 53.6431 995.785 53.5288 995.536 53.6296C995.248 53.7273 995.337 53.6139 995.312 53.9329C995.299 54.0924 995.283 54.2918 995.231 54.4482C995.184 55.0464 995.177 55.6476 995.133 56.2059C995.083 56.8439 995.033 57.482 994.946 58.077C994.865 58.5923 994.628 59.0551 994.391 59.5179C993.437 61.449 991.396 61.8904 989.392 61.8532C987.352 61.7729 985.077 61.1125 984.151 59.1137C983.225 57.115 983.671 54.5019 983.837 52.3884C984.234 46.8424 984.992 41.2847 986.023 35.8288C986.376 33.8905 986.53 31.415 987.819 29.8311C988.397 29.1143 989.198 28.6156 990.097 28.4054C990.711 28.2531 991.312 28.2603 991.855 28.5036C992.165 28.6483 992.355 28.7836 992.677 28.7688C992.919 28.7478 993.211 28.6102 993.493 28.5923C996.142 28.0784 998.866 28.1322 1001.52 28.5417C1003.66 28.9105 1005.82 29.4419 1007.84 30.3228C1011.13 31.8256 1013.61 34.5081 1014.08 38.1965C1014.16 38.7642 1014.16 39.3256 1014.15 39.9269C1014.15 40.4085 1014.24 40.8566 1014.28 41.3414C1014.32 42.3876 1014.19 43.4611 1013.87 44.4392C1013.33 46.2821 1012.27 48.0443 1010.62 49.1182C1010.36 49.2988 1010.03 49.4332 1009.74 49.6106C1009.48 49.7912 1009.3 49.978 1009.05 50.1586C1008.83 50.3423 1008.58 50.5229 1008.36 50.7066C1008.15 50.9301 1008.28 50.7402 1008.26 50.9794C1008.29 51.1421 1008.39 51.3908 1008.46 51.5565C1008.84 52.7905 1009.31 53.9908 1009.82 55.1544C1010.29 56.275 1010.81 57.3589 1011.45 58.4122C1011.77 58.9589 1012.09 59.5055 1012.32 60.0857C1012.53 60.5432 1012.56 61.1476 1012.85 61.5316Z" fill="black"/>
<path d="M1031.07 49.2274C1032.34 49.3429 1033.52 49.6902 1034.74 49.9216C1034.27 47.9916 1034.05 45.6015 1032.71 44.0338C1032.44 44.7726 1032.29 45.4825 1032.07 46.225C1031.73 47.239 1031.4 48.2133 1031.07 49.2274ZM1045.66 57.0563C1046.44 60.0184 1046.98 63.7628 1044.63 66.2405C1044.13 66.8781 1043.19 67.5555 1042.29 67.6355C1041.85 67.6754 1041.55 67.4872 1041.12 67.328C1040.84 67.2629 1040.56 67.2376 1040.33 67.1363C1039.79 66.9264 1039.34 66.5644 1038.98 66.0901C1038.11 65.0075 1037.64 63.6388 1037.27 62.3207C1037.1 61.582 1036.93 60.8432 1036.79 60.1081C1036.7 59.7388 1036.66 59.373 1036.61 59.0073C1036.54 58.8407 1036.6 58.685 1036.4 58.6669C1036.24 58.6126 1035.87 58.7395 1035.71 58.7649C1033.55 59.0516 1031.34 59.0921 1029.19 58.8972C1029.03 58.8827 1028.91 58.8321 1028.76 58.8176C1028.39 58.8648 1028.64 58.767 1028.54 58.9589C1028.45 59.0712 1028.43 59.3501 1028.37 59.5058C1028.3 59.8209 1028.19 60.1722 1028.08 60.4837C1027.86 61.1465 1027.6 61.8056 1027.22 62.454C1026.55 63.5986 1025.58 64.5947 1024.26 64.9971C1022.81 65.4683 1021 65.4652 1019.86 64.3574C1018.46 62.9455 1019.24 61.0476 1019.63 59.3563C1020.57 55.1443 1021.75 50.9938 1023.13 46.9012C1023.83 44.8766 1024.58 42.8556 1025.36 40.8781C1025.41 40.802 1025.41 40.7223 1025.46 40.6463C1025.59 40.1356 1025.75 39.6285 1025.92 39.1613C1025.9 38.9187 1025.92 38.6797 1025.95 38.4008C1026.08 37.8503 1026.41 37.3179 1026.88 36.9991C1028.06 34.978 1029.79 33.6086 1032.57 33.0971C1032.66 33.0645 1032.7 33.0681 1032.78 33.0355C1032.86 33.0427 1032.9 33.0463 1032.94 33.0101C1033.02 33.0173 1033.06 33.0209 1033.14 32.9883C1033.26 32.9991 1033.39 32.9701 1033.51 32.981C1034.54 32.6728 1035.69 32.8572 1036.44 33.8492C1036.66 34.1099 1036.87 34.3706 1037.09 34.6313C1037.4 34.8195 1037.69 35.1272 1037.94 35.511C1038.41 35.9962 1038.89 36.5211 1039.28 37.1186C1039.88 37.9767 1040.32 38.9398 1040.59 39.9284C1040.68 40.2579 1040.77 40.5875 1040.86 40.9568C1041.01 41.9346 1041.4 42.8941 1041.68 43.8827C1041.95 44.8713 1042.18 45.8562 1042.41 46.8412C1042.88 48.7713 1043.31 50.6977 1044.06 52.5336C1044.66 53.9929 1045.2 55.5282 1045.66 57.0563Z" fill="black"/>
<path d="M1059.59 37.4447C1060.12 38.9841 1059.56 40.6568 1059.37 42.2054C1059.05 44.1442 1058.82 46.0909 1058.55 48.0735C1058.02 51.76 1057.38 55.4746 1057.05 59.1807C1056.82 61.5692 1056.87 64.3473 1055.54 66.4272C1054.87 67.5268 1053.84 68.1893 1052.55 68.2233C1051.21 68.2933 1049.71 68.065 1048.46 67.701C1046 66.9768 1045.22 64.6895 1045.09 62.3454C1044.92 59.5955 1045.19 56.7691 1045.34 54.0106C1045.57 50.4559 1045.88 46.9091 1046.23 43.3263C1046.4 41.6146 1046.57 39.863 1046.78 38.1153C1046.9 36.9211 1047.1 35.7347 1048.35 35.2549C1048.81 35.0591 1049.34 34.9905 1049.86 35.0812C1050.06 35.1008 1050.25 35.1601 1050.41 35.2156C1050.52 35.2671 1050.63 35.3585 1050.75 35.3702C1050.91 35.3859 1050.96 35.3102 1051.17 35.2103C1051.67 35.0184 1052.27 35.0771 1052.83 35.0522C1053.32 35.0196 1053.84 35.0306 1054.36 35.0417C1056.24 35.1061 1058.82 35.44 1059.59 37.4447Z" fill="black"/>
<path d="M1094.44 43.6314C1094.31 47.8017 1093.67 51.9562 1093.23 56.0525C1092.82 59.7909 1092.5 63.5378 1091.86 67.2108C1091.68 68.1169 1091.51 68.9833 1091.42 69.8582C1091.34 70.5343 1091.05 71.0654 1090.55 71.5353C1090.02 72.001 1089.46 72.3032 1088.74 72.3455C1088.37 72.3467 1088.06 72.2329 1087.71 72.1546C1087.39 72.1203 1087.03 72.1216 1086.68 72.0432C1083.53 71.3427 1082.07 67.7255 1080.95 65.0702C1080.63 64.3115 1080.31 63.513 1079.95 62.75C1079.55 61.9828 1078.86 61.2651 1078.3 60.5603C1077.17 59.1108 1076.08 57.6259 1075.08 56.07C1075.09 57.0771 1075.1 58.0842 1075.12 59.0913C1075.18 61.07 1075.21 63.0444 1075.08 65.0017C1075.02 65.5585 1075 66.1196 1074.86 66.6678C1074.74 67.0569 1074.62 67.4063 1074.62 67.8481C1074.58 68.5682 1074.15 69.2058 1073.65 69.6757C1073.03 70.2123 1072.45 70.3512 1071.65 70.3849C1070.68 70.4412 1069.7 70.5372 1068.73 70.5538C1068.25 70.5422 1067.77 70.5306 1067.34 70.3641C1066.96 70.202 1066.66 69.9689 1066.32 69.8111C1065.62 69.5749 1065.07 69.0732 1064.74 68.4338C1064.41 67.7547 1064.33 66.9819 1064.37 66.222C1064.44 65.2235 1064.43 64.2164 1064.53 63.2619C1064.75 61.2336 1065.2 59.2708 1065.54 57.2554C1066.18 53.1407 1066.27 48.9263 1066.64 44.7816C1066.75 43.7476 1066.87 42.6738 1066.98 41.6398C1067.07 40.7648 1067.09 39.8018 1067.35 38.944C1067.62 37.9271 1068.46 37.1733 1069.49 37.0019C1070.48 36.7865 1071.53 37.0612 1072.27 37.7036C1072.45 37.8841 1072.63 38.1044 1072.77 38.3204C1072.94 38.5804 1073.2 38.7695 1073.45 39.0381C1073.74 39.3905 1073.94 39.7343 1074.32 39.976C1074.69 40.2177 1075.03 40.4551 1075.35 40.8118C1076.62 42.1547 1077.32 43.8398 1078.36 45.3602C1079.43 47.0042 1080.46 48.6837 1081.44 50.3987C1081.68 50.8263 1081.95 51.2981 1082.18 51.7257C1082.42 52.1534 1082.79 52.4746 1083.16 52.7958C1083.3 52.9323 1083.55 53.2804 1083.78 53.3459C1083.86 53.3544 1084.06 53.3361 1084.15 53.3049C1084.23 53.3134 1084.43 53.3349 1084.51 53.3036C1084.68 53.2412 1084.55 53.2682 1084.65 53.1574C1084.75 52.9671 1084.73 52.7242 1084.75 52.5254C1084.87 50.6874 1084.98 48.8892 1085.06 47.0469C1085.14 45.2444 1085.21 43.4419 1085.68 41.722C1086.07 40.2762 1086.73 38.6174 1088.31 38.1438C1089.06 37.9425 1090.02 38.0055 1090.73 38.1621C1091.59 38.3359 1092.28 38.6516 1092.9 39.2812C1094.02 40.4479 1094.49 42.0277 1094.44 43.6314Z" fill="black"/>
<path d="M1110.28 68.4698C1112.27 68.7124 1114.33 68.28 1116.15 67.5754C1116.48 67.4951 1116.61 67.4699 1116.72 67.2017C1116.79 66.9683 1116.82 66.6904 1116.85 66.4919C1116.95 66.0203 1117 65.5835 1117.05 65.1468C1117.17 64.1542 1117.25 63.1964 1117.25 62.1892C1117.23 60.4131 1117.01 58.6127 1116.61 56.8724C1115.94 54.1703 1114.88 50.978 1112.5 49.2779C1111.13 55.5976 1110.38 62.0346 1110.28 68.4698ZM1127.96 63.9805C1128.01 64.8734 1127.94 65.7914 1127.79 66.6601C1127.64 67.5287 1127.38 68.3431 1127.04 69.1478C1126.71 69.9128 1126.18 70.5741 1125.73 71.2848C1125.28 71.9956 1124.96 72.6811 1124.25 73.1594C1123.95 73.3636 1123.61 73.4837 1123.24 73.5591C1122.86 73.6743 1122.52 73.8737 1122.13 74.0285C1120.64 74.6925 1118.92 74.9255 1117.29 75.0888C1115.49 75.3121 1113.67 75.3717 1111.88 75.1931C1110.96 75.1212 1110.09 74.9747 1109.23 74.7489C1108.84 74.6607 1108.45 74.5327 1108.01 74.5191C1107.65 74.5151 1107.29 74.4714 1106.89 74.4229C1105.42 74.2831 1103.85 73.9302 1102.58 73.0903C1099.98 71.3213 1100.33 68.1401 1100.74 65.4102C1101.27 61.7273 1101.36 58.0309 1101.57 54.3489C1101.7 52.3094 1101.82 50.3096 1102.02 48.3195C1102.15 47.2872 1102.27 46.2946 1102.39 45.302C1102.52 44.5524 1102.77 43.8572 1103.36 43.3247C1103.85 42.9016 1104.44 42.7313 1105.1 42.6104C1105.92 42.5089 1106.74 42.4074 1107.56 42.2265C1109.51 41.8192 1111.35 41.2783 1113.34 41.1587C1116.58 40.991 1119.67 41.7713 1121.95 44.1862C1124.2 46.5565 1125.41 49.8475 1126.37 52.906C1126.91 54.7055 1127.33 56.5301 1127.59 58.3751C1127.85 60.2597 1127.86 62.1152 1127.96 63.9805Z" fill="black"/>
<path d="M1139.94 61.1247C1141.21 61.2945 1142.37 61.6916 1143.58 61.9751C1143.19 60.0268 1143.07 57.6293 1141.8 56.0056C1141.5 56.7324 1141.32 57.4354 1141.06 58.1675C1140.69 59.1664 1140.32 60.1257 1139.94 61.1247ZM1154.19 69.5694C1154.83 72.562 1155.22 76.3262 1152.76 78.7012C1152.23 79.3168 1151.26 79.9534 1150.37 79.9952C1149.92 80.0161 1149.63 79.8151 1149.21 79.6377C1148.93 79.5609 1148.66 79.5238 1148.43 79.4127C1147.89 79.1798 1147.46 78.7989 1147.12 78.3097C1146.3 77.1912 1145.88 75.8033 1145.58 74.4709C1145.44 73.7254 1145.29 72.9799 1145.19 72.2398C1145.12 71.867 1145.09 71.4996 1145.06 71.1322C1145 70.963 1145.06 70.8097 1144.86 70.7831C1144.71 70.7223 1144.33 70.8331 1144.17 70.8515C1142 71.046 1139.79 70.992 1137.65 70.7054C1137.49 70.6841 1137.38 70.6286 1137.22 70.6074C1136.85 70.6389 1137.1 70.5518 1137 70.7394C1136.9 70.8477 1136.87 71.1253 1136.8 71.2785C1136.72 71.5904 1136.6 71.9366 1136.47 72.2432C1136.23 72.8959 1135.94 73.5434 1135.53 74.1749C1134.82 75.29 1133.8 76.2437 1132.46 76.5893C1130.99 76.9982 1129.19 76.918 1128.09 75.7623C1126.76 74.2919 1127.61 72.4289 1128.08 70.7559C1129.2 66.588 1130.56 62.4917 1132.1 58.4615C1132.9 56.4689 1133.73 54.4816 1134.59 52.5392C1134.64 52.4652 1134.65 52.3859 1134.7 52.3119C1134.85 51.8071 1135.04 51.3077 1135.22 50.8478C1135.21 50.6046 1135.25 50.3668 1135.28 50.0892C1135.44 49.5448 1135.79 49.0269 1136.27 48.7285C1137.54 46.7599 1139.33 45.4656 1142.13 45.0732C1142.21 45.0442 1142.25 45.0495 1142.34 45.0205C1142.42 45.0311 1142.46 45.0364 1142.5 45.0021C1142.58 45.0127 1142.62 45.018 1142.71 44.9889C1142.82 45.0049 1142.95 44.9811 1143.07 44.9971C1144.11 44.7333 1145.25 44.9665 1145.96 45.9898C1146.17 46.2595 1146.37 46.5292 1146.58 46.799C1146.88 47 1147.16 47.32 1147.38 47.714C1147.84 48.2191 1148.29 48.7638 1148.66 49.3772C1149.22 50.2604 1149.62 51.2412 1149.85 52.2405C1149.92 52.5736 1150 52.9067 1150.07 53.2794C1150.18 54.2628 1150.53 55.2384 1150.76 56.2376C1150.99 57.2369 1151.18 58.2309 1151.37 59.2248C1151.76 61.1731 1152.1 63.1161 1152.78 64.9826C1153.31 66.4658 1153.79 68.0229 1154.19 69.5694Z" fill="black"/>
<path d="M1194.78 56.8703C1194.49 61.0324 1193.68 65.1582 1193.08 69.234C1192.53 72.9537 1192.06 76.685 1191.28 80.3301C1191.07 81.2285 1190.86 82.0874 1190.73 82.958C1190.63 83.6307 1190.31 84.1496 1189.8 84.5998C1189.25 85.0441 1188.68 85.3243 1187.95 85.3379C1187.59 85.3249 1187.29 85.199 1186.94 85.1069C1186.62 85.0601 1186.26 85.0471 1185.91 84.955C1182.79 84.1315 1181.48 80.4597 1180.46 77.7622C1180.17 76.9915 1179.88 76.1813 1179.55 75.4047C1179.18 74.6223 1178.53 73.8782 1177.99 73.1516C1176.91 71.6588 1175.89 70.1323 1174.95 68.5383C1174.92 69.5451 1174.89 70.5519 1174.87 71.5587C1174.86 73.5386 1174.81 75.5126 1174.6 77.4633C1174.52 78.0173 1174.48 78.5771 1174.32 79.1195C1174.18 79.5035 1174.05 79.8479 1174.02 80.2891C1173.96 81.0072 1173.5 81.6273 1172.99 82.0775C1172.35 82.5893 1171.76 82.7053 1170.96 82.7072C1169.98 82.7253 1169 82.783 1168.04 82.7615C1167.56 82.7309 1167.08 82.7004 1166.66 82.5174C1166.28 82.3403 1165.99 82.0957 1165.65 81.9244C1164.96 81.661 1164.44 81.1381 1164.13 80.4861C1163.82 79.7945 1163.78 79.0193 1163.85 78.2616C1163.96 77.2665 1163.98 76.2597 1164.12 75.31C1164.42 73.2919 1164.95 71.3484 1165.37 69.3478C1166.17 65.2616 1166.43 61.054 1166.96 56.9269C1167.11 55.8981 1167.27 54.8297 1167.42 53.8008C1167.55 52.9303 1167.61 51.9689 1167.9 51.1217C1168.21 50.1162 1169.08 49.3962 1170.11 49.2652C1171.11 49.0889 1172.15 49.4049 1172.86 50.0757C1173.04 50.2632 1173.21 50.4903 1173.33 50.7115C1173.5 50.9781 1173.75 51.1773 1173.99 51.4556C1174.26 51.8189 1174.45 52.1706 1174.82 52.4268C1175.19 52.6831 1175.51 52.9335 1175.82 53.3027C1177.03 54.6943 1177.67 56.4056 1178.65 57.9659C1179.66 59.6507 1180.62 61.3692 1181.53 63.1215C1181.75 63.5581 1182 64.0401 1182.22 64.4767C1182.44 64.9133 1182.79 65.2487 1183.15 65.5841C1183.29 65.7262 1183.52 66.0837 1183.75 66.1583C1183.83 66.17 1184.03 66.1596 1184.12 66.1317C1184.2 66.1434 1184.39 66.1726 1184.48 66.1447C1184.65 66.0889 1184.53 66.111 1184.62 66.004C1184.73 65.8178 1184.73 65.5745 1184.75 65.3767C1184.94 63.5447 1185.13 61.7523 1185.28 59.9145C1185.42 58.1163 1185.57 56.3181 1186.1 54.6178C1186.55 53.1888 1187.28 51.5573 1188.88 51.1462C1189.63 50.9743 1190.59 51.0749 1191.29 51.2592C1192.15 51.4669 1192.82 51.8095 1193.41 52.4628C1194.49 53.6727 1194.9 55.2699 1194.78 56.8703Z" fill="black"/>
<path d="M1215.63 82.9382C1216.34 83.7845 1216.67 85.0132 1216.49 86.1185C1215.96 88.8293 1213.14 89.9883 1210.68 89.1406C1208.31 88.3057 1206.74 85.4957 1207.78 83.0728C1208.35 81.8282 1209.54 81.0094 1210.92 80.7884C1212.12 80.6205 1213.27 81.0117 1214.38 81.436C1214.98 81.6972 1215.42 82.2549 1215.6 82.8923C1215.6 82.8923 1215.64 82.8987 1215.63 82.9382Z" fill="black"/>
<path d="M1266.55 84.28C1267.16 85.6505 1267.67 87.0854 1267.97 88.5631C1268.42 91.0034 1268.07 93.5827 1266.17 95.3099C1264.55 96.844 1262.24 97.4797 1260.09 97.6576C1259.47 97.7074 1258.9 97.6857 1258.34 97.664C1257.69 97.6672 1257.06 97.7564 1256.42 97.7203C1255.08 97.7197 1253.77 97.5223 1252.49 97.1675C1249.83 96.3971 1247.68 94.7861 1246.15 92.4742C1245.34 91.1465 1244.52 89.8581 1244.1 88.3589C1243.61 86.8059 1243.39 85.0993 1243.52 83.4965C1243.56 82.8132 1243.49 82.1083 1243.73 81.4609C1243.97 80.8134 1244.48 80.2555 1245.11 79.8838C1246.12 79.2939 1247.44 78.9654 1248.57 79.4167C1249.17 79.6889 1249.5 80.1541 1249.89 80.6731C1250.29 81.1527 1250.57 81.6107 1250.83 82.1869C1251.33 83.4965 1251.58 84.7632 1252.39 85.9263C1253.06 86.9033 1254.38 88.3637 1255.73 87.9171C1256.72 87.6098 1256.9 86.1395 1256.49 85.2914C1256.2 84.6687 1255.48 84.1317 1254.95 83.7093C1254.35 83.1938 1253.67 82.7034 1253.02 82.2201C1252.38 81.7368 1251.71 81.1676 1251.01 80.7559C1250.42 80.4443 1249.84 80.0541 1249.31 79.6317C1247.08 77.8024 1245.69 75.1507 1245.48 72.3063C1245.27 69.462 1246.31 66.8471 1248.48 65.0056C1250.55 63.2285 1253.23 62.3353 1255.88 62.0861C1258.49 61.8297 1261.39 61.7487 1263.87 62.6479C1265.05 63.1064 1266.29 63.8619 1266.99 64.9248C1267.25 65.297 1267.26 65.6655 1267.4 66.0555C1267.54 66.3668 1267.85 66.7069 1268.04 66.986C1268.39 67.5371 1268.73 68.1276 1269.03 68.7109C1269.62 69.9169 1270.03 71.2122 1270.32 72.5254C1270.51 73.2911 1270.66 74.0103 1270.77 74.7616C1270.91 75.5202 1271 76.1857 1270.9 76.9405C1270.85 77.6632 1270.82 78.2678 1270.42 78.9259C1270.12 79.441 1269.59 79.913 1269.11 80.2741C1268.63 80.714 1268.01 80.9677 1267.35 81.0103C1266.64 81.1245 1266.09 80.8201 1265.4 80.5729C1264.67 80.3186 1264.09 79.9677 1263.54 79.42C1263.06 78.9261 1262.75 78.3821 1262.35 77.9025C1261.44 76.8825 1260.91 75.7302 1260.5 74.4349C1260.11 73.2254 1259.74 71.9373 1258.29 71.6325C1257.19 71.3923 1255.82 71.7924 1255.71 73.0731C1255.69 73.6384 1255.86 74.2395 1256.05 74.762C1256.34 75.424 1256.98 75.7033 1257.56 76.0542C1258.59 76.688 1259.76 77.1465 1260.78 77.8195C1262.01 78.6537 1262.99 79.7275 1264.07 80.7369C1265.15 81.707 1265.94 82.9488 1266.55 84.28Z" fill="black"/>
<path d="M1301.55 76.0634C1301.4 76.8485 1301.13 77.5713 1300.68 78.2164C1298.7 81.2523 1294.47 81.1987 1291.29 80.576C1291.17 80.553 1290.68 80.3745 1290.58 80.4377C1290.49 80.5008 1290.38 81.0503 1290.36 81.1681C1290.22 81.6707 1290.03 82.2049 1289.89 82.7468C1289.61 83.752 1289.33 84.7573 1289.09 85.7702C1288.85 86.7831 1288.53 87.8199 1288.41 88.8559C1288.32 89.8996 1288.28 90.951 1288.2 91.9946C1288.03 94.082 1287.78 96.1932 1287.42 98.2814C1287.12 99.8123 1286.67 101.234 1284.97 101.594C1284.3 101.706 1283.6 101.529 1282.94 101.563C1282.07 101.637 1281.25 101.436 1280.52 101.047C1279.04 100.268 1278.11 98.7815 1277.81 97.1746C1277.51 95.5676 1277.75 93.9428 1277.98 92.3572C1278.22 90.2853 1278.46 88.2133 1278.66 86.1729C1278.87 84.054 1279.03 81.9666 1279.16 79.8716C1279.17 79.3851 1279.22 78.9456 1279.26 78.5062C1279.27 78.2629 1279.32 78.0274 1279.32 77.8235C1279.35 77.4625 1279.26 77.4864 1278.97 77.3071C1278.13 76.8163 1277.29 76.2862 1276.47 75.7168C1275.17 74.8513 1273.98 73.844 1273.24 72.435C1272.87 71.6285 1272.67 70.7742 1273 69.9021C1273.16 69.5249 1273.41 69.2493 1273.72 68.9422C1273.98 68.6666 1274.04 68.3525 1274.26 68.03C1275.31 66.4412 1277.05 66.7009 1278.64 67.1338C1280.45 67.6522 1282.12 68.5084 1283.93 69.0267C1285.83 69.5212 1287.83 69.5053 1289.79 69.521C1291.73 69.576 1293.7 69.5132 1295.62 69.7251C1297.33 69.9379 1299.01 70.5117 1300.21 71.8483C1301.26 72.9502 1301.85 74.5325 1301.55 76.0634Z" fill="black"/>
<path d="M1319.27 86.0024C1316.95 87.7176 1315.74 90.6929 1315.75 93.5565C1315.79 95.322 1316.32 97.4385 1318.12 98.1886C1320.04 99.0027 1322.19 98.1093 1323.28 96.4193C1324.34 94.6819 1324.36 92.6816 1323.9 90.7857C1323.64 89.7079 1323.3 88.6136 1322.68 87.6651C1321.87 86.4713 1320.65 86.0495 1319.27 86.0024ZM1334.36 92.7561C1334.17 93.6561 1333.98 94.5561 1333.79 95.4562C1333.03 99.2211 1331.98 103.21 1329.4 106.138C1326.77 109.098 1322.95 109.964 1319.15 109.16C1318.17 108.953 1317.21 108.667 1316.23 108.46C1315.15 108.189 1314.08 107.839 1313.03 107.372C1311.04 106.542 1309.07 105.429 1307.45 103.982C1304.81 101.583 1303.55 98.0856 1303.64 94.5485C1303.74 91.1762 1304.43 87.7635 1305.62 84.6234C1306.85 81.5306 1308.74 78.5789 1311.63 76.7367C1312.29 76.3049 1313.09 76.0237 1313.79 75.6002C1314.5 75.1376 1315.39 75.2025 1316.24 75.0553C1317.45 74.9044 1318.69 74.8792 1319.94 74.9405C1322.77 75.0904 1325.61 75.609 1328.24 76.698C1330.49 77.665 1332.86 79.1904 1333.74 81.5854C1333.96 82.1213 1334.11 82.7272 1334.11 83.339C1334.16 84.2496 1334.53 85.1875 1334.66 86.1147C1334.98 88.307 1334.74 90.5873 1334.36 92.7561Z" fill="black"/>
<path d="M1370.45 90.6158C1369.84 94.7426 1368.71 98.7925 1367.79 102.809C1366.95 106.475 1366.19 110.158 1365.13 113.731C1364.85 114.61 1364.57 115.45 1364.38 116.308C1364.23 116.971 1363.87 117.463 1363.32 117.872C1362.74 118.272 1362.15 118.507 1361.42 118.464C1361.06 118.423 1360.77 118.274 1360.43 118.154C1360.11 118.083 1359.75 118.042 1359.41 117.923C1356.37 116.859 1355.35 113.096 1354.54 110.327C1354.31 109.536 1354.09 108.706 1353.82 107.906C1353.52 107.097 1352.92 106.304 1352.44 105.538C1351.48 103.966 1350.58 102.364 1349.77 100.701C1349.66 101.703 1349.55 102.705 1349.45 103.706C1349.29 105.679 1349.08 107.643 1348.72 109.572C1348.6 110.118 1348.51 110.673 1348.31 111.201C1348.14 111.573 1347.99 111.906 1347.93 112.344C1347.8 113.055 1347.3 113.638 1346.76 114.047C1346.08 114.507 1345.49 114.577 1344.68 114.516C1343.71 114.458 1342.73 114.439 1341.77 114.342C1341.29 114.274 1340.81 114.206 1340.41 113.991C1340.05 113.785 1339.78 113.519 1339.46 113.322C1338.79 113.005 1338.3 112.443 1338.05 111.769C1337.8 111.056 1337.81 110.279 1337.94 109.529C1338.13 108.546 1338.23 107.544 1338.45 106.608C1338.9 104.619 1339.58 102.723 1340.15 100.761C1341.27 96.7502 1341.86 92.5755 1342.71 88.5022C1342.94 87.4883 1343.18 86.4355 1343.41 85.4216C1343.61 84.5637 1343.74 83.61 1344.09 82.7878C1344.48 81.8095 1345.41 81.1599 1346.45 81.1097C1347.45 81.0116 1348.47 81.4081 1349.13 82.1323C1349.29 82.3328 1349.44 82.5723 1349.55 82.8029C1349.69 83.0815 1349.93 83.2998 1350.15 83.5962C1350.39 83.9794 1350.55 84.3448 1350.89 84.6289C1351.24 84.913 1351.55 85.1881 1351.83 85.5803C1352.92 87.062 1353.42 88.8178 1354.28 90.4499C1355.15 92.2079 1355.98 93.9961 1356.75 95.8142C1356.93 96.2666 1357.15 96.7668 1357.33 97.2191C1357.52 97.6714 1357.84 98.0335 1358.17 98.3956C1358.3 98.5482 1358.5 98.9225 1358.73 99.015C1358.8 99.0328 1359.01 99.0383 1359.1 99.0172C1359.17 99.035 1359.37 99.0795 1359.46 99.0584C1359.63 99.016 1359.5 99.0283 1359.61 98.9291C1359.73 98.752 1359.74 98.5091 1359.79 98.3141C1360.12 96.5025 1360.44 94.7299 1360.74 92.9094C1361.02 91.1279 1361.31 89.3464 1361.97 87.693C1362.53 86.3036 1363.38 84.7338 1365.01 84.4484C1365.77 84.3359 1366.72 84.5107 1367.4 84.7491C1368.24 85.0231 1368.89 85.4174 1369.43 86.1148C1370.41 87.4049 1370.69 89.0293 1370.45 90.6158Z" fill="black"/>
<path d="M1390.12 113.814C1393.39 115.269 1393.71 118.682 1392.83 121.801C1392.43 123.269 1390.88 124.413 1389.3 123.947C1387.95 123.577 1386.6 123.207 1385.25 122.837C1382.56 122.387 1379.88 121.899 1377.21 121.372C1375.36 121.005 1373.49 120.754 1371.77 120.211C1371.1 120.089 1370.43 119.967 1369.81 119.816C1369.14 119.694 1368.55 119.387 1368.25 118.777C1368.21 118.603 1368.16 118.467 1368.12 118.293C1367.83 117.936 1367.69 117.529 1367.59 117.093C1367.56 117.045 1367.54 116.958 1367.51 116.909C1367.2 116.135 1367.2 115.311 1367.24 114.457C1367.33 112.749 1367.74 111.077 1367.99 109.368C1368.3 107.426 1368.64 105.493 1369.03 103.57C1369.76 99.7142 1370.71 95.8279 1371.72 91.9993C1371.9 91.2609 1372.19 90.5898 1372.64 90.0826C1373.13 88.9251 1374.33 88.0641 1375.91 88.4911C1381.26 89.8753 1386.67 90.9874 1392.12 91.7791C1394.49 92.1528 1396.86 92.4004 1398.06 94.7507C1399.25 97.1398 1397.9 99.1173 1397.62 101.477C1397.42 103.117 1395.45 103.954 1394.04 103.652C1390.44 102.898 1384.61 101.478 1381.12 100.422C1380.92 101.073 1380.72 101.724 1380.56 102.385C1381.35 102.496 1384.44 103.167 1385.22 103.356C1386.22 103.641 1387.3 104.11 1387.96 104.969C1389.3 106.737 1388.26 109.45 1386.49 110.46C1384.97 111.323 1381 110.687 1379.37 110.454C1379.33 110.813 1379.32 111.182 1379.31 111.551C1380.3 111.71 1383.55 112.418 1384.54 112.577C1386.35 112.895 1388.42 113.029 1390.12 113.814Z" fill="black"/>
<path d="M1424.08 104.748C1423.21 106.918 1422.42 109.108 1421.7 111.358C1421.67 111.474 1421.59 111.618 1421.58 111.783C1421.53 112.141 1421.48 111.879 1421.68 112.056C1421.84 112.224 1422.14 112.345 1422.36 112.445C1422.75 112.674 1423.21 113.001 1423.69 113.047C1424.6 113.207 1425.69 113 1426.59 112.868C1427.46 112.726 1428.32 112.584 1429.17 112.354C1429.76 112.178 1430.68 111.804 1430.91 111.119C1430.99 110.809 1430.91 110.333 1430.92 110.003C1430.9 109.586 1430.89 109.168 1430.83 108.779C1430.8 108.4 1430.81 107.741 1430.64 107.447C1430.43 107.143 1429.81 106.852 1429.52 106.693C1427.87 105.756 1425.97 104.961 1424.08 104.748ZM1434.31 133.34C1434.71 134.152 1434.81 135.046 1434.46 135.865C1433.82 137.35 1431.91 138.291 1430.42 137.522C1429.91 137.262 1429.35 137.195 1428.81 137.051C1428.28 136.868 1427.79 136.696 1427.29 136.397C1426.28 135.839 1425.38 135.02 1424.76 134.069C1423.58 132.266 1423.69 130.143 1423 128.221C1422.58 127.157 1422.03 126.14 1421.55 125.143C1421.27 124.615 1421.05 124.059 1420.9 123.523C1420.82 123.376 1420.79 122.871 1420.65 122.752C1420.56 122.644 1419.81 122.652 1419.65 122.611C1419.37 122.578 1418.97 122.388 1418.71 122.442C1418.4 122.486 1418.51 122.39 1418.43 122.7C1418.39 122.854 1418.34 123.047 1418.26 123.192C1418.1 123.772 1417.99 124.362 1417.84 124.903C1417.68 125.521 1417.52 126.14 1417.32 126.709C1417.15 127.202 1416.83 127.614 1416.52 128.026C1415.23 129.754 1413.14 129.819 1411.18 129.421C1409.19 128.973 1407.07 127.913 1406.52 125.78C1405.97 123.647 1406.88 121.157 1407.42 119.109C1408.82 113.725 1410.56 108.396 1412.56 103.216C1413.26 101.373 1413.86 98.9661 1415.41 97.6409C1416.11 97.0402 1416.99 96.6945 1417.91 96.6502C1418.54 96.6112 1419.13 96.7268 1419.62 97.0641C1419.9 97.2623 1420.06 97.4297 1420.38 97.4733C1420.63 97.4964 1420.94 97.4138 1421.22 97.4471C1423.92 97.4199 1426.59 97.9647 1429.12 98.8471C1431.16 99.5958 1433.19 100.509 1435.02 101.74C1437.98 103.813 1439.94 106.898 1439.74 110.611C1439.71 111.183 1439.6 111.735 1439.49 112.325C1439.4 112.799 1439.4 113.255 1439.36 113.74C1439.21 114.776 1438.89 115.809 1438.4 116.714C1437.53 118.428 1436.17 119.969 1434.35 120.728C1434.07 120.859 1433.72 120.932 1433.4 121.053C1433.11 121.184 1432.91 121.336 1432.62 121.468C1432.38 121.61 1432.1 121.741 1431.85 121.883C1431.6 122.064 1431.76 121.901 1431.7 122.133C1431.7 122.298 1431.75 122.561 1431.79 122.736C1431.95 124.019 1432.19 125.284 1432.48 126.521C1432.74 127.709 1433.06 128.868 1433.5 130.019C1433.71 130.614 1433.92 131.21 1434.05 131.823C1434.17 132.31 1434.09 132.91 1434.31 133.34Z" fill="black"/>
<path d="M1446.86 122.475C1448.09 122.823 1449.18 123.38 1450.34 123.833C1450.23 121.85 1450.45 119.459 1449.42 117.671C1449.02 118.348 1448.75 119.019 1448.39 119.707C1447.87 120.642 1447.37 121.539 1446.86 122.475ZM1459.76 132.854C1459.98 135.909 1459.82 139.689 1457.06 141.692C1456.45 142.227 1455.39 142.719 1454.5 142.634C1454.06 142.591 1453.79 142.35 1453.4 142.115C1453.14 142 1452.88 141.924 1452.67 141.782C1452.17 141.476 1451.8 141.037 1451.53 140.505C1450.88 139.282 1450.66 137.848 1450.55 136.486C1450.51 135.728 1450.48 134.97 1450.48 134.222C1450.46 133.843 1450.48 133.475 1450.5 133.107C1450.47 132.931 1450.55 132.788 1450.36 132.734C1450.22 132.652 1449.83 132.708 1449.66 132.703C1447.49 132.588 1445.31 132.221 1443.23 131.634C1443.08 131.59 1442.97 131.519 1442.82 131.476C1442.45 131.455 1442.71 131.405 1442.58 131.575C1442.47 131.669 1442.4 131.938 1442.31 132.082C1442.19 132.379 1442.01 132.703 1441.85 132.989C1441.51 133.6 1441.13 134.2 1440.64 134.768C1439.78 135.77 1438.63 136.57 1437.26 136.723C1435.75 136.919 1433.98 136.584 1433.05 135.285C1431.94 133.639 1433.05 131.916 1433.75 130.327C1435.45 126.36 1437.37 122.497 1439.48 118.727C1440.54 116.867 1441.65 115.018 1442.78 113.218C1442.84 113.152 1442.86 113.075 1442.92 113.009C1443.14 112.53 1443.4 112.062 1443.64 111.633C1443.67 111.391 1443.74 111.16 1443.81 110.891C1444.04 110.373 1444.46 109.911 1444.98 109.684C1446.52 107.916 1448.48 106.888 1451.3 106.896C1451.39 106.879 1451.43 106.89 1451.51 106.873C1451.59 106.895 1451.63 106.906 1451.68 106.878C1451.76 106.9 1451.79 106.911 1451.88 106.894C1452 106.927 1452.12 106.921 1452.24 106.954C1453.31 106.841 1454.41 107.233 1454.96 108.347C1455.13 108.643 1455.29 108.939 1455.46 109.235C1455.73 109.476 1455.96 109.833 1456.13 110.255C1456.51 110.82 1456.88 111.424 1457.15 112.082C1457.59 113.037 1457.84 114.064 1457.92 115.085C1457.95 115.426 1457.98 115.766 1458 116.146C1457.97 117.135 1458.18 118.15 1458.26 119.172C1458.35 120.194 1458.4 121.205 1458.44 122.216C1458.55 124.199 1458.61 126.171 1459.02 128.115C1459.33 129.658 1459.59 131.267 1459.76 132.854Z" fill="black"/>
</svg>
